<?xml version="1.0" encoding="UTF-8" standalone="no"?>
<!-- Created with Inkscape (http://www.inkscape.org/) -->

<svg
   width="150mm"
   height="150mm"
   viewBox="0 0 150 150"
   version="1.1"
   id="svg5"
   inkscape:version="1.1.2 (b8e25be8, 2022-02-05)"
   sodipodi:docname="dimple_150.svg"
   xmlns:inkscape="http://www.inkscape.org/namespaces/inkscape"
   xmlns:sodipodi="http://sodipodi.sourceforge.net/DTD/sodipodi-0.dtd"
   xmlns:xlink="http://www.w3.org/1999/xlink"
   xmlns="http://www.w3.org/2000/svg"
   xmlns:svg="http://www.w3.org/2000/svg">
  <sodipodi:namedview
     id="namedview7"
     pagecolor="#ffffff"
     bordercolor="#666666"
     borderopacity="1.0"
     inkscape:pageshadow="2"
     inkscape:pageopacity="0.0"
     inkscape:pagecheckerboard="0"
     inkscape:document-units="mm"
     showgrid="false"
     showguides="true"
     inkscape:guide-bbox="true"
     inkscape:zoom="0.636721"
     inkscape:cx="282.69839"
     inkscape:cy="209.66797"
     inkscape:window-width="1312"
     inkscape:window-height="847"
     inkscape:window-x="66"
     inkscape:window-y="25"
     inkscape:window-maximized="0"
     inkscape:current-layer="layer1"
     fit-margin-top="0"
     fit-margin-left="0"
     fit-margin-right="0"
     fit-margin-bottom="0">
    <sodipodi:guide
       position="149.03477,51.866338"
       orientation="0,-1"
       id="guide7260" />
    <sodipodi:guide
       position="143.80708,42.236399"
       orientation="0,-1"
       id="guide7262" />
  </sodipodi:namedview>
  <defs
     id="defs2">
    <marker
       style="overflow:visible"
       id="Arrow2Lend"
       refX="0"
       refY="0"
       orient="auto"
       inkscape:stockid="Arrow2Lend"
       inkscape:isstock="true">
      <path
         transform="matrix(-1.1,0,0,-1.1,-1.1,0)"
         d="M 8.7185878,4.0337352 -2.2072895,0.01601326 8.7185884,-4.0017078 c -1.7454984,2.3720609 -1.7354408,5.6174519 -6e-7,8.035443 z"
         style="fill:context-stroke;fill-rule:evenodd;stroke:context-stroke;stroke-width:0.625;stroke-linejoin:round"
         id="path4001" />
    </marker>
    <marker
       style="overflow:visible"
       id="Arrow2Lend-3"
       refX="0"
       refY="0"
       orient="auto"
       inkscape:stockid="Arrow2Lend"
       inkscape:isstock="true">
      <path
         transform="matrix(-1.1,0,0,-1.1,-1.1,0)"
         d="M 8.7185878,4.0337352 -2.2072895,0.01601326 8.7185884,-4.0017078 c -1.7454984,2.3720609 -1.7354408,5.6174519 -6e-7,8.035443 z"
         style="fill:context-stroke;fill-rule:evenodd;stroke:context-stroke;stroke-width:0.625;stroke-linejoin:round"
         id="path4001-3" />
    </marker>
    <marker
       style="overflow:visible"
       id="Arrow2Lend-8"
       refX="0"
       refY="0"
       orient="auto"
       inkscape:stockid="Arrow2Lend"
       inkscape:isstock="true">
      <path
         transform="matrix(-1.1,0,0,-1.1,-1.1,0)"
         d="M 8.7185878,4.0337352 -2.2072895,0.01601326 8.7185884,-4.0017078 c -1.7454984,2.3720609 -1.7354408,5.6174519 -6e-7,8.035443 z"
         style="fill:context-stroke;fill-rule:evenodd;stroke:context-stroke;stroke-width:0.625;stroke-linejoin:round"
         id="path4001-9" />
    </marker>
    <marker
       style="overflow:visible"
       id="Arrow2Lend-3-2"
       refX="0"
       refY="0"
       orient="auto"
       inkscape:stockid="Arrow2Lend"
       inkscape:isstock="true">
      <path
         transform="matrix(-1.1,0,0,-1.1,-1.1,0)"
         d="M 8.7185878,4.0337352 -2.2072895,0.01601326 8.7185884,-4.0017078 c -1.7454984,2.3720609 -1.7354408,5.6174519 -6e-7,8.035443 z"
         style="fill:context-stroke;fill-rule:evenodd;stroke:context-stroke;stroke-width:0.625;stroke-linejoin:round"
         id="path4001-3-4" />
    </marker>
    <g
       id="g370">
      <symbol
         overflow="visible"
         id="symbol5612">
        <path
           style="stroke:none"
           d=""
           id="path7425" />
      </symbol>
      <symbol
         overflow="visible"
         id="symbol3005">
        <path
           style="stroke:none"
           d="M 3.328125,-3.015625 C 3.390625,-3.265625 3.625,-4.1875 4.3125,-4.1875 c 0.046875,0 0.296875,0 0.5,0.125 C 4.53125,-4 4.34375,-3.765625 4.34375,-3.515625 c 0,0.15625 0.109375,0.34375 0.375,0.34375 0.21875,0 0.53125,-0.171875 0.53125,-0.578125 0,-0.515625 -0.578125,-0.65625 -0.921875,-0.65625 -0.578125,0 -0.921875,0.53125 -1.046875,0.75 -0.25,-0.65625 -0.78125,-0.75 -1.078125,-0.75 -1.03125,0 -1.609375,1.28125 -1.609375,1.53125 0,0.109375 0.109375,0.109375 0.125,0.109375 0.078125,0 0.109375,-0.03125 0.125,-0.109375 0.34375,-1.0625 1,-1.3125 1.34375,-1.3125 0.1875,0 0.53125,0.09375 0.53125,0.671875 0,0.3125 -0.171875,0.96875 -0.53125,2.375 -0.15625,0.609375 -0.515625,1.03125 -0.953125,1.03125 -0.0625,0 -0.28125,0 -0.5,-0.125 0.25,-0.0625 0.46875,-0.265625 0.46875,-0.546875 0,-0.265625 -0.21875,-0.34375 -0.359375,-0.34375 -0.3125,0 -0.546875,0.25 -0.546875,0.578125 0,0.453125 0.484375,0.65625 0.921875,0.65625 0.671875,0 1.03125,-0.703125 1.046875,-0.75 0.125,0.359375 0.484375,0.75 1.078125,0.75 1.03125,0 1.59375,-1.28125 1.59375,-1.53125 0,-0.109375 -0.078125,-0.109375 -0.109375,-0.109375 -0.09375,0 -0.109375,0.046875 -0.140625,0.109375 -0.328125,1.078125 -1,1.3125 -1.3125,1.3125 -0.390625,0 -0.546875,-0.3125 -0.546875,-0.65625 0,-0.21875 0.046875,-0.4375 0.15625,-0.875 z m 0,0"
           id="path3860" />
      </symbol>
    </g>
    <g
       id="g4048">
      <symbol
         overflow="visible"
         id="symbol8027">
        <path
           style="stroke:none"
           d=""
           id="path8920" />
      </symbol>
      <symbol
         overflow="visible"
         id="symbol476">
        <path
           style="stroke:none"
           d="m 4.84375,-3.796875 c 0.046875,-0.140625 0.046875,-0.15625 0.046875,-0.234375 0,-0.171875 -0.140625,-0.265625 -0.296875,-0.265625 -0.09375,0 -0.25,0.0625 -0.34375,0.203125 -0.015625,0.0625 -0.109375,0.359375 -0.140625,0.546875 -0.078125,0.25 -0.140625,0.53125 -0.203125,0.796875 l -0.453125,1.796875 c -0.03125,0.140625 -0.46875,0.84375 -1.125,0.84375 -0.5,0 -0.609375,-0.4375 -0.609375,-0.8125 C 1.71875,-1.375 1.890625,-2 2.21875,-2.875 2.375,-3.28125 2.421875,-3.390625 2.421875,-3.59375 c 0,-0.4375 -0.3125,-0.8125 -0.8125,-0.8125 -0.953125,0 -1.3125,1.453125 -1.3125,1.53125 0,0.109375 0.09375,0.109375 0.109375,0.109375 0.109375,0 0.109375,-0.03125 0.15625,-0.1875 0.28125,-0.9375 0.671875,-1.234375 1.015625,-1.234375 0.078125,0 0.25,0 0.25,0.3125 0,0.25 -0.109375,0.515625 -0.171875,0.703125 -0.40625,1.0625 -0.578125,1.625 -0.578125,2.09375 0,0.890625 0.625,1.1875 1.21875,1.1875 0.390625,0 0.71875,-0.171875 1,-0.453125 -0.125,0.515625 -0.25,1.015625 -0.640625,1.546875 -0.265625,0.328125 -0.640625,0.625 -1.09375,0.625 -0.140625,0 -0.59375,-0.03125 -0.765625,-0.421875 0.15625,0 0.296875,0 0.421875,-0.125 C 1.328125,1.203125 1.421875,1.0625 1.421875,0.875 1.421875,0.5625 1.15625,0.53125 1.0625,0.53125 0.828125,0.53125 0.5,0.6875 0.5,1.171875 c 0,0.5 0.4375,0.875 1.0625,0.875 1.015625,0 2.046875,-0.90625 2.328125,-2.03125 z m 0,0"
           id="path1762" />
      </symbol>
    </g>
    <g
       id="g2988">
      <symbol
         overflow="visible"
         id="symbol9135">
        <path
           style="stroke:none"
           d=""
           id="path9803" />
      </symbol>
      <symbol
         overflow="visible"
         id="symbol6830">
        <path
           style="stroke:none"
           d="m 1.328125,-0.828125 c 0.53125,-0.578125 0.828125,-0.828125 1.1875,-1.140625 0,0 0.609375,-0.53125 0.96875,-0.890625 C 4.4375,-3.78125 4.65625,-4.265625 4.65625,-4.3125 c 0,-0.09375 -0.09375,-0.09375 -0.109375,-0.09375 -0.078125,0 -0.09375,0.015625 -0.15625,0.109375 -0.296875,0.484375 -0.5,0.640625 -0.734375,0.640625 -0.25,0 -0.359375,-0.15625 -0.515625,-0.328125 -0.1875,-0.21875 -0.359375,-0.421875 -0.6875,-0.421875 -0.75,0 -1.203125,0.921875 -1.203125,1.140625 0,0.046875 0.03125,0.109375 0.109375,0.109375 0.09375,0 0.109375,-0.046875 0.140625,-0.109375 0.1875,-0.46875 0.765625,-0.46875 0.84375,-0.46875 0.203125,0 0.390625,0.0625 0.625,0.140625 0.40625,0.15625 0.515625,0.15625 0.765625,0.15625 -0.359375,0.421875 -1.1875,1.140625 -1.375,1.296875 l -0.90625,0.84375 C 0.78125,-0.625 0.421875,-0.0625 0.421875,0.015625 c 0,0.09375 0.109375,0.09375 0.125,0.09375 0.078125,0 0.09375,-0.015625 0.15625,-0.125 0.234375,-0.359375 0.53125,-0.625 0.859375,-0.625 0.21875,0 0.328125,0.09375 0.578125,0.375 0.15625,0.21875 0.34375,0.375 0.625,0.375 1,0 1.578125,-1.265625 1.578125,-1.53125 0,-0.046875 -0.046875,-0.109375 -0.125,-0.109375 -0.09375,0 -0.109375,0.0625 -0.140625,0.140625 C 3.84375,-0.75 3.203125,-0.5625 2.875,-0.5625 c -0.1875,0 -0.375,-0.0625 -0.578125,-0.125 -0.34375,-0.125 -0.5,-0.171875 -0.703125,-0.171875 -0.015625,0 -0.171875,0 -0.265625,0.03125 z m 0,0"
           id="path3696" />
      </symbol>
    </g>
    <g
       id="g8036">
      <symbol
         overflow="visible"
         id="symbol9472">
        <path
           style="stroke:none"
           d=""
           id="path9874" />
      </symbol>
      <symbol
         overflow="visible"
         id="symbol2458">
        <path
           style="stroke:none"
           d="M 3.734375,-6.046875 C 3.8125,-6.40625 3.84375,-6.5 4.640625,-6.5 c 0.234375,0 0.3125,0 0.3125,-0.1875 0,-0.125 -0.109375,-0.125 -0.140625,-0.125 -0.296875,0 -1.03125,0.03125 -1.328125,0.03125 -0.296875,0 -1.015625,-0.03125 -1.328125,-0.03125 -0.0625,0 -0.1875,0 -0.1875,0.203125 C 1.96875,-6.5 2.046875,-6.5 2.25,-6.5 c 0.40625,0 0.6875,0 0.6875,0.1875 0,0.046875 0,0.078125 -0.03125,0.15625 l -1.34375,5.375 c -0.09375,0.375 -0.109375,0.46875 -0.90625,0.46875 -0.234375,0 -0.3125,0 -0.3125,0.203125 C 0.34375,0 0.453125,0 0.484375,0 0.78125,0 1.5,-0.03125 1.796875,-0.03125 2.09375,-0.03125 2.828125,0 3.125,0 c 0.078125,0 0.203125,0 0.203125,-0.1875 0,-0.125 -0.078125,-0.125 -0.296875,-0.125 -0.1875,0 -0.234375,0 -0.421875,-0.015625 -0.21875,-0.015625 -0.25,-0.0625 -0.25,-0.171875 0,-0.078125 0.015625,-0.15625 0.03125,-0.234375 z m 0,0"
           id="path9194" />
      </symbol>
    </g>
    <g
       id="g8330">
      <symbol
         overflow="visible"
         id="symbol9016">
        <path
           style="stroke:none"
           d=""
           id="path6327" />
      </symbol>
      <symbol
         overflow="visible"
         id="symbol4975">
        <path
           style="stroke:none"
           d="M 3.734375,-6.046875 C 3.8125,-6.40625 3.84375,-6.5 4.640625,-6.5 c 0.234375,0 0.3125,0 0.3125,-0.1875 0,-0.125 -0.109375,-0.125 -0.140625,-0.125 -0.296875,0 -1.03125,0.03125 -1.328125,0.03125 -0.296875,0 -1.015625,-0.03125 -1.328125,-0.03125 -0.0625,0 -0.1875,0 -0.1875,0.203125 C 1.96875,-6.5 2.046875,-6.5 2.25,-6.5 c 0.40625,0 0.6875,0 0.6875,0.1875 0,0.046875 0,0.078125 -0.03125,0.15625 l -1.34375,5.375 c -0.09375,0.375 -0.109375,0.46875 -0.90625,0.46875 -0.234375,0 -0.3125,0 -0.3125,0.203125 C 0.34375,0 0.453125,0 0.484375,0 0.78125,0 1.5,-0.03125 1.796875,-0.03125 2.09375,-0.03125 2.828125,0 3.125,0 c 0.078125,0 0.203125,0 0.203125,-0.1875 0,-0.125 -0.078125,-0.125 -0.296875,-0.125 -0.1875,0 -0.234375,0 -0.421875,-0.015625 -0.21875,-0.015625 -0.25,-0.0625 -0.25,-0.171875 0,-0.078125 0.015625,-0.15625 0.03125,-0.234375 z m 0,0"
           id="path3393" />
      </symbol>
      <symbol
         overflow="visible"
         id="symbol4904">
        <path
           style="stroke:none"
           d=""
           id="path7843" />
      </symbol>
      <symbol
         overflow="visible"
         id="symbol6753">
        <path
           style="stroke:none"
           d="m 2.328125,-4.4375 c 0,-0.1875 0,-0.1875 -0.203125,-0.1875 -0.453125,0.4375 -1.078125,0.4375 -1.359375,0.4375 v 0.25 c 0.15625,0 0.625,0 1,-0.1875 v 3.546875 c 0,0.234375 0,0.328125 -0.6875,0.328125 H 0.8125 V 0 c 0.125,0 0.984375,-0.03125 1.234375,-0.03125 0.21875,0 1.09375,0.03125 1.25,0.03125 V -0.25 H 3.03125 c -0.703125,0 -0.703125,-0.09375 -0.703125,-0.328125 z m 0,0"
           id="path1925" />
      </symbol>
    </g>
    <marker
       style="overflow:visible"
       id="Arrow2Lend-8-1"
       refX="0"
       refY="0"
       orient="auto"
       inkscape:stockid="Arrow2Lend"
       inkscape:isstock="true">
      <path
         transform="matrix(-1.1,0,0,-1.1,-1.1,0)"
         d="M 8.7185878,4.0337352 -2.2072895,0.01601326 8.7185884,-4.0017078 c -1.7454984,2.3720609 -1.7354408,5.6174519 -6e-7,8.035443 z"
         style="fill:context-stroke;fill-rule:evenodd;stroke:context-stroke;stroke-width:0.625;stroke-linejoin:round"
         id="path4001-9-6" />
    </marker>
    <marker
       style="overflow:visible"
       id="Arrow2Lend-8-5"
       refX="0"
       refY="0"
       orient="auto"
       inkscape:stockid="Arrow2Lend"
       inkscape:isstock="true">
      <path
         transform="matrix(-1.1,0,0,-1.1,-1.1,0)"
         d="M 8.7185878,4.0337352 -2.2072895,0.01601326 8.7185884,-4.0017078 c -1.7454984,2.3720609 -1.7354408,5.6174519 -6e-7,8.035443 z"
         style="fill:context-stroke;fill-rule:evenodd;stroke:context-stroke;stroke-width:0.625;stroke-linejoin:round"
         id="path4001-9-0" />
    </marker>
    <marker
       style="overflow:visible"
       id="Arrow2Lend-3-4"
       refX="0"
       refY="0"
       orient="auto"
       inkscape:stockid="Arrow2Lend"
       inkscape:isstock="true">
      <path
         transform="matrix(-1.1,0,0,-1.1,-1.1,0)"
         d="M 8.7185878,4.0337352 -2.2072895,0.01601326 8.7185884,-4.0017078 c -1.7454984,2.3720609 -1.7354408,5.6174519 -6e-7,8.035443 z"
         style="fill:context-stroke;fill-rule:evenodd;stroke:context-stroke;stroke-width:0.625;stroke-linejoin:round"
         id="path4001-3-1" />
    </marker>
    <g
       id="g4418">
      <symbol
         overflow="visible"
         id="symbol3505">
        <path
           style="stroke:none"
           d=""
           id="path9776" />
      </symbol>
      <symbol
         overflow="visible"
         id="symbol6317">
        <path
           style="stroke:none"
           d="M 4.140625,-6.515625 3.984375,-6.65625 c 0,0 -0.375,0.46875 -0.8125,0.46875 -0.234375,0 -0.484375,-0.140625 -0.65625,-0.25 C 2.25,-6.59375 2.078125,-6.65625 1.90625,-6.65625 c -0.375,0 -0.578125,0.21875 -1.078125,0.78125 l 0.15625,0.140625 c 0,0 0.375,-0.46875 0.8125,-0.46875 0.234375,0 0.484375,0.140625 0.65625,0.234375 0.265625,0.171875 0.453125,0.234375 0.625,0.234375 0.375,0 0.5625,-0.21875 1.0625,-0.78125 z m 0,0"
           id="path5573" />
      </symbol>
      <symbol
         overflow="visible"
         id="symbol2976">
        <path
           style="stroke:none"
           d=""
           id="path8832" />
      </symbol>
      <symbol
         overflow="visible"
         id="symbol4719">
        <path
           style="stroke:none"
           d="M 1.59375,-0.78125 C 1.5,-0.390625 1.46875,-0.3125 0.6875,-0.3125 c -0.171875,0 -0.265625,0 -0.265625,0.203125 C 0.421875,0 0.515625,0 0.6875,0 H 4.25 C 5.828125,0 7,-1.171875 7,-2.15625 7,-2.875 6.421875,-3.453125 5.453125,-3.5625 6.484375,-3.75 7.53125,-4.484375 7.53125,-5.4375 c 0,-0.734375 -0.65625,-1.375 -1.84375,-1.375 H 2.328125 c -0.1875,0 -0.28125,0 -0.28125,0.203125 0,0.109375 0.09375,0.109375 0.28125,0.109375 0.015625,0 0.203125,0 0.375,0.015625 0.171875,0.03125 0.265625,0.03125 0.265625,0.171875 0,0.03125 -0.015625,0.0625 -0.03125,0.1875 z m 1.5,-2.875 0.625,-2.46875 C 3.8125,-6.46875 3.828125,-6.5 4.25,-6.5 h 1.296875 c 0.875,0 1.078125,0.59375 1.078125,1.03125 0,0.875 -0.859375,1.8125 -2.0625,1.8125 z m -0.4375,3.34375 c -0.140625,0 -0.15625,0 -0.21875,0 -0.109375,-0.015625 -0.140625,-0.03125 -0.140625,-0.109375 0,-0.03125 0,-0.046875 0.0625,-0.21875 l 0.6875,-2.78125 h 1.875 c 0.953125,0 1.15625,0.734375 1.15625,1.15625 C 6.078125,-1.28125 5.1875,-0.3125 4,-0.3125 Z m 0,0"
           id="path434" />
      </symbol>
      <symbol
         overflow="visible"
         id="symbol2832">
        <path
           style="stroke:none"
           d=""
           id="path5360" />
      </symbol>
      <symbol
         overflow="visible"
         id="symbol2653">
        <path
           style="stroke:none"
           d="M 3.875,-2.625 C 3.90625,-2.71875 3.90625,-2.734375 3.90625,-2.78125 3.90625,-2.921875 3.796875,-3 3.671875,-3 3.59375,-3 3.46875,-2.96875 3.390625,-2.84375 3.359375,-2.796875 3.3125,-2.578125 3.28125,-2.4375 L 3.125,-1.859375 c -0.03125,0.171875 -0.25,1.046875 -0.28125,1.125 0,0 -0.3125,0.609375 -0.84375,0.609375 -0.484375,0 -0.484375,-0.453125 -0.484375,-0.578125 0,-0.375 0.15625,-0.8125 0.375,-1.359375 C 1.96875,-2.28125 2,-2.359375 2,-2.484375 2,-2.8125 1.71875,-3.078125 1.34375,-3.078125 0.640625,-3.078125 0.328125,-2.125 0.328125,-2 c 0,0.078125 0.09375,0.078125 0.125,0.078125 0.09375,0 0.09375,-0.03125 0.125,-0.109375 C 0.75,-2.609375 1.046875,-2.875 1.328125,-2.875 1.4375,-2.875 1.5,-2.796875 1.5,-2.640625 c 0,0.171875 -0.0625,0.3125 -0.09375,0.40625 C 1.0625,-1.375 1,-1.125 1,-0.8125 1,-0.703125 1,-0.375 1.265625,-0.140625 1.484375,0.03125 1.78125,0.0625 1.96875,0.0625 2.25,0.0625 2.5,-0.03125 2.71875,-0.25 2.640625,0.140625 2.5625,0.4375 2.265625,0.78125 2.078125,1 1.796875,1.21875 1.421875,1.21875 c -0.046875,0 -0.375,0 -0.515625,-0.21875 0.375,-0.046875 0.375,-0.375 0.375,-0.390625 0,-0.21875 -0.203125,-0.265625 -0.265625,-0.265625 -0.171875,0 -0.40625,0.140625 -0.40625,0.46875 0,0.34375 0.328125,0.609375 0.828125,0.609375 C 2.140625,1.421875 3,0.875 3.21875,0 Z m 0,0"
           id="path8540" />
      </symbol>
    </g>
    <g
       id="g7565">
      <symbol
         overflow="visible"
         id="symbol8679">
        <path
           style="stroke:none"
           d=""
           id="path5810" />
      </symbol>
      <symbol
         overflow="visible"
         id="symbol7400">
        <path
           style="stroke:none"
           d="M 4.140625,-6.515625 3.984375,-6.65625 c 0,0 -0.375,0.46875 -0.8125,0.46875 -0.234375,0 -0.484375,-0.140625 -0.65625,-0.25 C 2.25,-6.59375 2.078125,-6.65625 1.90625,-6.65625 c -0.375,0 -0.578125,0.21875 -1.078125,0.78125 l 0.15625,0.140625 c 0,0 0.375,-0.46875 0.8125,-0.46875 0.234375,0 0.484375,0.140625 0.65625,0.234375 0.265625,0.171875 0.453125,0.234375 0.625,0.234375 0.375,0 0.5625,-0.21875 1.0625,-0.78125 z m 0,0"
           id="path4181" />
      </symbol>
      <symbol
         overflow="visible"
         id="symbol5786">
        <path
           style="stroke:none"
           d=""
           id="path1821" />
      </symbol>
      <symbol
         overflow="visible"
         id="symbol291">
        <path
           style="stroke:none"
           d="M 1.59375,-0.78125 C 1.5,-0.390625 1.46875,-0.3125 0.6875,-0.3125 c -0.171875,0 -0.265625,0 -0.265625,0.203125 C 0.421875,0 0.515625,0 0.6875,0 H 4.25 C 5.828125,0 7,-1.171875 7,-2.15625 7,-2.875 6.421875,-3.453125 5.453125,-3.5625 6.484375,-3.75 7.53125,-4.484375 7.53125,-5.4375 c 0,-0.734375 -0.65625,-1.375 -1.84375,-1.375 H 2.328125 c -0.1875,0 -0.28125,0 -0.28125,0.203125 0,0.109375 0.09375,0.109375 0.28125,0.109375 0.015625,0 0.203125,0 0.375,0.015625 0.171875,0.03125 0.265625,0.03125 0.265625,0.171875 0,0.03125 -0.015625,0.0625 -0.03125,0.1875 z m 1.5,-2.875 0.625,-2.46875 C 3.8125,-6.46875 3.828125,-6.5 4.25,-6.5 h 1.296875 c 0.875,0 1.078125,0.59375 1.078125,1.03125 0,0.875 -0.859375,1.8125 -2.0625,1.8125 z m -0.4375,3.34375 c -0.140625,0 -0.15625,0 -0.21875,0 -0.109375,-0.015625 -0.140625,-0.03125 -0.140625,-0.109375 0,-0.03125 0,-0.046875 0.0625,-0.21875 l 0.6875,-2.78125 h 1.875 c 0.953125,0 1.15625,0.734375 1.15625,1.15625 C 6.078125,-1.28125 5.1875,-0.3125 4,-0.3125 Z m 0,0"
           id="path2666" />
      </symbol>
      <symbol
         overflow="visible"
         id="symbol6916">
        <path
           style="stroke:none"
           d=""
           id="path7812" />
      </symbol>
      <symbol
         overflow="visible"
         id="symbol4266">
        <path
           style="stroke:none"
           d="M 1.734375,-0.734375 C 1.671875,-0.5 1.4375,-0.125 1.078125,-0.125 c -0.015625,0 -0.234375,0 -0.375,-0.09375 0.28125,-0.09375 0.3125,-0.34375 0.3125,-0.390625 0,-0.15625 -0.125,-0.25 -0.28125,-0.25 -0.203125,0 -0.40625,0.15625 -0.40625,0.421875 0,0.34375 0.390625,0.5 0.734375,0.5 0.328125,0 0.609375,-0.1875 0.78125,-0.484375 C 2.015625,-0.0625 2.390625,0.0625 2.671875,0.0625 c 0.8125,0 1.234375,-0.859375 1.234375,-1.0625 0,-0.09375 -0.09375,-0.09375 -0.109375,-0.09375 -0.109375,0 -0.109375,0.046875 -0.140625,0.125 -0.140625,0.484375 -0.5625,0.84375 -0.953125,0.84375 -0.28125,0 -0.421875,-0.1875 -0.421875,-0.453125 0,-0.1875 0.171875,-0.8125 0.359375,-1.59375 C 2.78125,-2.703125 3.09375,-2.875 3.328125,-2.875 c 0.015625,0 0.21875,0 0.375,0.09375 -0.21875,0.0625 -0.3125,0.265625 -0.3125,0.390625 0,0.140625 0.125,0.25 0.28125,0.25 0.15625,0 0.390625,-0.125 0.390625,-0.421875 0,-0.390625 -0.453125,-0.515625 -0.71875,-0.515625 -0.359375,0 -0.640625,0.234375 -0.78125,0.5 -0.125,-0.28125 -0.453125,-0.5 -0.84375,-0.5 C 0.9375,-3.078125 0.5,-2.21875 0.5,-2 c 0,0.078125 0.09375,0.078125 0.109375,0.078125 0.09375,0 0.09375,-0.015625 0.140625,-0.109375 C 0.921875,-2.578125 1.359375,-2.875 1.703125,-2.875 1.9375,-2.875 2.125,-2.75 2.125,-2.421875 2.125,-2.28125 2.03125,-1.9375 1.96875,-1.6875 Z m 0,0"
           id="path2083" />
      </symbol>
    </g>
    <g
       id="g64">
      <symbol
         overflow="visible"
         id="symbol2367">
        <path
           style="stroke:none"
           d=""
           id="path1469" />
      </symbol>
      <symbol
         overflow="visible"
         id="symbol2332">
        <path
           style="stroke:none"
           d="m 3.296875,2.390625 c 0,-0.03125 0,-0.046875 -0.171875,-0.21875 C 1.890625,0.921875 1.5625,-0.96875 1.5625,-2.5 c 0,-1.734375 0.375,-3.46875 1.609375,-4.703125 0.125,-0.125 0.125,-0.140625 0.125,-0.171875 0,-0.078125 -0.03125,-0.109375 -0.09375,-0.109375 -0.109375,0 -1,0.6875 -1.59375,1.953125 -0.5,1.09375 -0.625,2.203125 -0.625,3.03125 0,0.78125 0.109375,1.984375 0.65625,3.125 C 2.25,1.84375 3.09375,2.5 3.203125,2.5 c 0.0625,0 0.09375,-0.03125 0.09375,-0.109375 z m 0,0"
           id="path7824" />
      </symbol>
      <symbol
         overflow="visible"
         id="symbol9693">
        <path
           style="stroke:none"
           d="m 3.3125,-0.75 c 0.046875,0.390625 0.3125,0.8125 0.78125,0.8125 0.21875,0 0.828125,-0.140625 0.828125,-0.953125 v -0.5625 h -0.25 v 0.5625 c 0,0.578125 -0.25,0.640625 -0.359375,0.640625 -0.328125,0 -0.375,-0.453125 -0.375,-0.5 v -1.984375 c 0,-0.421875 0,-0.8125 -0.359375,-1.1875 C 3.1875,-4.3125 2.6875,-4.46875 2.21875,-4.46875 c -0.828125,0 -1.515625,0.46875 -1.515625,1.125 0,0.296875 0.203125,0.46875 0.46875,0.46875 0.28125,0 0.453125,-0.203125 0.453125,-0.453125 0,-0.125 -0.046875,-0.453125 -0.515625,-0.453125 C 1.390625,-4.140625 1.875,-4.25 2.1875,-4.25 c 0.5,0 1.0625,0.390625 1.0625,1.28125 v 0.359375 c -0.515625,0.03125 -1.203125,0.0625 -1.828125,0.359375 -0.75,0.34375 -1,0.859375 -1,1.296875 0,0.8125 0.96875,1.0625 1.59375,1.0625 0.65625,0 1.109375,-0.40625 1.296875,-0.859375 z M 3.25,-2.390625 v 1 c 0,0.9375 -0.71875,1.28125 -1.171875,1.28125 -0.484375,0 -0.890625,-0.34375 -0.890625,-0.84375 0,-0.546875 0.421875,-1.375 2.0625,-1.4375 z m 0,0"
           id="path2732" />
      </symbol>
      <symbol
         overflow="visible"
         id="symbol6015">
        <path
           style="stroke:none"
           d="m 2.875,-2.5 c 0,-0.765625 -0.109375,-1.96875 -0.65625,-3.109375 -0.59375,-1.21875 -1.453125,-1.875 -1.546875,-1.875 -0.0625,0 -0.109375,0.046875 -0.109375,0.109375 0,0.03125 0,0.046875 0.1875,0.234375 0.984375,0.984375 1.546875,2.5625 1.546875,4.640625 0,1.71875 -0.359375,3.46875 -1.59375,4.71875 C 0.5625,2.34375 0.5625,2.359375 0.5625,2.390625 0.5625,2.453125 0.609375,2.5 0.671875,2.5 0.765625,2.5 1.671875,1.8125 2.25,0.546875 2.765625,-0.546875 2.875,-1.65625 2.875,-2.5 Z m 0,0"
           id="path7563" />
      </symbol>
    </g>
  </defs>
  <g
     inkscape:label="Layer 1"
     inkscape:groupmode="layer"
     id="layer1"
     transform="translate(-3.88081,-130.574)">
    <path
       style="fill:#d2ab22;fill-opacity:1;stroke:#d2ab22;stroke-width:1.12382;stroke-opacity:1"
       d="m 97.010901,225.1834 -25.891338,-14.73295 -0.0024,-2.00759 c -0.0024,-1.98012 -0.05346,-2.03665 -3.736538,-4.13216 -3.551558,-2.02069 -3.902308,-2.11681 -7.172799,-1.96572 l -3.438641,0.15886 -11.163422,-6.42303 -11.163421,-6.42303 v -4.13961 -4.13961 l 1.610614,0.97568 c 0.885838,0.53661 20.78931,11.85024 44.229937,25.14137 23.440627,13.29114 42.684537,24.21598 42.764247,24.27744 0.0797,0.0615 0.0797,1.91884 0,4.12752 l -0.14493,4.01578 z"
       id="path1820" />
    <path
       id="path1370-5"
       style="fill:none;stroke:#000000;stroke-width:0.204921px;stroke-linecap:butt;stroke-linejoin:miter;stroke-opacity:1"
       d="m 34.240133,180.89797 h 8.857751 m 80.288816,50.62167 h 8.85775 M 43.097882,180.89797 132.24445,231.51964 M 34.240133,180.89797 123.3867,231.51964"
       sodipodi:nodetypes="cccccccc" />
    <path
       id="path1370-5-7"
       style="fill:none;stroke:#000000;stroke-width:0.6;stroke-linecap:butt;stroke-linejoin:miter;stroke-miterlimit:4;stroke-dasharray:none;stroke-opacity:1;marker-end:url(#Arrow2Lend)"
       d="m 129.06943,237.47105 21.5686,12.03653"
       sodipodi:nodetypes="cc" />
    <path
       id="path1370-5-7-6"
       style="fill:none;stroke:#000000;stroke-width:0.6;stroke-linecap:butt;stroke-linejoin:miter;stroke-miterlimit:4;stroke-dasharray:none;stroke-opacity:1;marker-end:url(#Arrow2Lend-8)"
       d="m 6.749307,189.47463 11.422703,6.4726"
       sodipodi:nodetypes="cc" />
    <path
       id="path1370-5-7-6-0"
       style="fill:none;stroke:#736e75;stroke-width:0.6;stroke-linecap:butt;stroke-linejoin:miter;stroke-miterlimit:4;stroke-dasharray:none;stroke-opacity:1;marker-end:url(#Arrow2Lend-8-5)"
       d="m 76.458796,186.13689 -11.422702,-6.4726"
       sodipodi:nodetypes="cc" />
    <path
       style="fill:none;stroke:#000000;stroke-width:0.204921px;stroke-linecap:butt;stroke-linejoin:miter;stroke-opacity:1"
       d="m 34.240133,180.89797 v 9.12643"
       id="path1584"
       sodipodi:nodetypes="cc" />
    <path
       style="fill:none;stroke:#000000;stroke-width:0.204921px;stroke-linecap:butt;stroke-linejoin:miter;stroke-opacity:1"
       d="m 132.24445,231.51964 v 9.12643"
       id="path1584-1" />
    <path
       style="fill:none;stroke:#000000;stroke-width:0.204921px;stroke-linecap:butt;stroke-linejoin:miter;stroke-opacity:1"
       d="m 123.3867,231.51964 v 9.12643"
       id="path1584-1-9" />
    <path
       style="fill:none;stroke:#000000;stroke-width:0.204921px;stroke-linecap:butt;stroke-linejoin:miter;stroke-opacity:1"
       d="m 34.240133,190.0244 22.475753,12.91693 m 14.176272,7.84996 52.494542,29.85478 h 8.85775"
       id="path1838"
       sodipodi:nodetypes="ccccc" />
    <path
       style="fill:none;stroke:#000000;stroke-width:0.204921px;stroke-linecap:butt;stroke-linejoin:miter;stroke-opacity:1"
       d="m 64.016072,202.84244 6.876086,3.96991 v 3.97894"
       id="path1840"
       sodipodi:nodetypes="ccc" />
    <path
       style="fill:none;stroke:#000000;stroke-width:0.204921px;stroke-linecap:butt;stroke-linejoin:miter;stroke-opacity:1"
       d="m 5.3184815,207.15166 v -4.18361 l 6.8760855,3.96991 v 3.97894"
       id="path1840-5"
       sodipodi:nodetypes="cccc" />
    <path
       style="fill:none;stroke:#000000;stroke-width:0.204921px;stroke-linecap:butt;stroke-linejoin:miter;stroke-opacity:1"
       d="M 64.016072,202.84244 5.3184815,202.96805"
       id="path1842"
       sodipodi:nodetypes="cc" />
    <path
       style="fill:none;stroke:#000000;stroke-width:0.204921px;stroke-linecap:butt;stroke-linejoin:miter;stroke-opacity:1"
       d="m 12.194567,206.93796 58.697591,-0.12561"
       id="path1979"
       sodipodi:nodetypes="cc" />
    <path
       style="fill:none;stroke:#000000;stroke-width:0.204921px;stroke-linecap:butt;stroke-linejoin:miter;stroke-opacity:1"
       d="m 5.3184815,207.15166 6.8760855,3.76524 58.697591,-0.12561"
       id="path3197" />
    <path
       style="fill:none;stroke:#000000;stroke-width:0.204921px;stroke-linecap:butt;stroke-linejoin:miter;stroke-opacity:1"
       d="m 122.71367,202.71684 6.87608,3.9699 v 3.97894"
       id="path1840-0"
       sodipodi:nodetypes="ccc" />
    <path
       style="fill:none;stroke:#000000;stroke-width:0.204921px;stroke-linecap:butt;stroke-linejoin:miter;stroke-opacity:1"
       d="m 122.71367,202.71684 -41.132788,0.1256"
       id="path1842-9"
       sodipodi:nodetypes="cc" />
    <path
       style="fill:none;stroke:#000000;stroke-width:0.204921px;stroke-linecap:butt;stroke-linejoin:miter;stroke-opacity:1"
       d="m 88.856169,206.81235 40.733581,-0.12561"
       id="path1979-5"
       sodipodi:nodetypes="cc" />
    <path
       style="fill:none;stroke:#000000;stroke-width:0.204921px;stroke-linecap:butt;stroke-linejoin:miter;stroke-opacity:1"
       d="m 95.722413,210.79129 33.867337,-0.12561"
       id="path3197-6"
       sodipodi:nodetypes="cc" />
    <path
       style="fill:none;stroke:#000000;stroke-width:0.6;stroke-linecap:butt;stroke-linejoin:miter;stroke-miterlimit:4;stroke-dasharray:none;stroke-opacity:1;marker-end:url(#Arrow2Lend)"
       d="m 130.64603,204.95828 h 16.75305"
       id="path3898" />
    <path
       style="fill:none;stroke:#000000;stroke-width:0.6;stroke-linecap:butt;stroke-linejoin:miter;stroke-miterlimit:4;stroke-dasharray:none;stroke-opacity:1;marker-end:url(#Arrow2Lend-3)"
       d="M 6.749307,189.47463 H 23.50236"
       id="path3898-3" />
    <path
       style="fill:none;stroke:#000000;stroke-width:0.6;stroke-linecap:butt;stroke-linejoin:miter;stroke-miterlimit:4;stroke-dasharray:none;stroke-opacity:1;marker-end:url(#Arrow2Lend-3-2)"
       d="M 6.749307,189.47463 V 172.72158"
       id="path3898-3-9" />
    <g
       inkscape:label=""
       transform="matrix(1.4063173,0,0,1.4063173,-109.32169,84.617794)"
       id="g1030">
      <g
         id="g19">
        <g
           style="fill:#000000;fill-opacity:1"
           id="g4223">
          <use
             xlink:href="#symbol3005"
             x="91.925003"
             y="81.962997"
             id="use8342"
             width="100%"
             height="100%" />
        </g>
      </g>
    </g>
    <g
       inkscape:label=""
       transform="matrix(1.4063173,0,0,1.4063173,-106.3069,68.52776)"
       id="g1150">
      <g
         id="g4657">
        <g
           style="fill:#000000;fill-opacity:1"
           id="g716">
          <use
             xlink:href="#symbol476"
             x="91.925003"
             y="81.962997"
             id="use2516"
             width="100%"
             height="100%" />
        </g>
      </g>
    </g>
    <g
       inkscape:label=""
       transform="matrix(1.4063173,0,0,1.4063173,-124.29904,50.079188)"
       id="g1288">
      <g
         id="g7872">
        <g
           style="fill:#000000;fill-opacity:1"
           id="g3319">
          <use
             xlink:href="#symbol6830"
             x="91.925003"
             y="81.962997"
             id="use577"
             width="100%"
             height="100%" />
        </g>
      </g>
    </g>
    <g
       inkscape:label=""
       transform="matrix(1.4063173,0,0,1.4063173,17.169309,125.15577)"
       id="g1444">
      <g
         id="g5134">
        <g
           style="fill:#000000;fill-opacity:1"
           id="g4166">
          <use
             xlink:href="#symbol2458"
             x="91.925003"
             y="81.962997"
             id="use8320"
             width="100%"
             height="100%" />
        </g>
      </g>
    </g>
    <g
       inkscape:label=""
       transform="matrix(1.4063173,0,0,1.4063173,6.5396053,82.417404)"
       id="g1624">
      <g
         id="g5815">
        <g
           style="fill:#000000;fill-opacity:1"
           id="g2594">
          <use
             xlink:href="#symbol4975"
             x="91.925003"
             y="81.962997"
             id="use8208"
             width="100%"
             height="100%" />
        </g>
        <g
           style="fill:#000000;fill-opacity:1"
           id="g5713">
          <use
             xlink:href="#symbol6753"
             x="96.305"
             y="83.457001"
             id="use1246"
             width="100%"
             height="100%" />
        </g>
      </g>
    </g>
    <path
       style="fill:#d2ab22;fill-opacity:1;stroke:#d2ab22;stroke-width:0.236186;stroke-miterlimit:4;stroke-dasharray:none;stroke-opacity:1"
       d="M 88.945441,211.66328 C 69.927363,200.85287 50.127407,189.58996 44.945535,186.63458 l -9.421588,-5.37341 3.776271,-0.0569 3.776269,-0.0569 43.556488,24.72793 c 23.956065,13.60036 43.837695,24.89742 44.181395,25.10457 0.61664,0.37165 0.57254,0.37639 -3.33285,0.35766 l -3.95776,-0.019 -34.578319,-19.65528 z"
       id="path2723" />
    <path
       style="fill:#d2ab22;fill-opacity:1;stroke:#d2ab22;stroke-width:0.236186;stroke-miterlimit:4;stroke-dasharray:none;stroke-opacity:1"
       d="m 123.65476,236.14994 0.0773,-4.37348 4.11398,-7.9e-4 4.11399,-8e-4 v 3.33285 c 0,1.83307 -0.0584,3.33285 -0.1298,3.33285 -0.0714,0 -0.67881,-0.30182 -1.34983,-0.67071 -0.99301,-0.54591 -1.26925,-0.62082 -1.48455,-0.40258 -0.31767,0.322 -0.0358,0.56637 1.76644,1.53147 0.93874,0.50269 1.19774,0.74771 1.19774,1.13312 v 0.49173 h -4.19129 -4.19129 z"
       id="path2799" />
    <path
       style="fill:#d2ab22;fill-opacity:1;stroke:#d2ab22;stroke-width:0.236186;stroke-miterlimit:4;stroke-dasharray:none;stroke-opacity:1"
       d="m 9.3242957,205.03107 -2.9655897,-1.72758 12.339231,-0.14314 c 6.786577,-0.0787 19.626868,-0.13645 28.533982,-0.12829 l 16.194751,0.0148 2.031772,1.02975 c 1.117476,0.56637 2.530351,1.34356 3.139721,1.72708 l 1.107945,0.69732 -20.79259,0.13851 c -11.435927,0.0762 -24.354578,0.13413 -28.708113,0.1288 l -7.91552,-0.01 z"
       id="path2838" />
    <path
       style="fill:#d2ab22;fill-opacity:1;stroke:#d2ab22;stroke-width:0.236186;stroke-miterlimit:4;stroke-dasharray:none;stroke-opacity:1"
       d="m 12.394037,208.99977 v -1.7363 l 16.403871,-0.13828 c 9.022131,-0.0761 22.041464,-0.13836 28.931852,-0.13844 11.231805,-1.3e-4 12.541059,0.034 12.654414,0.32935 0.06954,0.18122 0.126439,0.96259 0.126439,1.73637 v 1.40689 l -13.904235,0.13818 c -7.647328,0.076 -20.723558,0.13826 -29.058287,0.13835 l -15.154054,1.7e-4 z"
       id="path2877" />
    <path
       style="fill:#d2ab22;fill-opacity:1;stroke:#d2ab22;stroke-width:0.236186;stroke-miterlimit:4;stroke-dasharray:none;stroke-opacity:1"
       d="m 85.716744,204.84462 -3.020396,-1.71162 19.892952,-0.10471 19.89295,-0.1047 3.2262,1.8232 3.22621,1.82321 -20.09876,-0.007 -20.098763,-0.007 z"
       id="path2916" />
    <path
       style="fill:#d2ab22;fill-opacity:1;stroke:#d2ab22;stroke-width:0.236186;stroke-miterlimit:4;stroke-dasharray:none;stroke-opacity:1"
       d="m 94.15302,209.64883 c -0.801968,-0.46348 -2.161145,-1.2504 -3.020396,-1.7487 l -1.562274,-0.906 19.94503,-0.004 19.94502,-0.004 v 1.77057 1.77058 l -16.92463,-0.0181 -16.924628,-0.0181 -1.458122,-0.84269 z"
       id="path2955" />
    <path
       style="fill:#d2ab22;fill-opacity:1;stroke:#d2ab22;stroke-width:0.236186;stroke-miterlimit:4;stroke-dasharray:none;stroke-opacity:1"
       d="m 8.748732,208.78087 -3.1245471,-1.72732 -0.06048,-1.8242 c -0.033791,-1.01922 0.022042,-1.79234 0.1265237,-1.75198 0.1028518,0.0397 1.5595479,0.86463 3.2371027,1.83312 l 3.0500997,1.76089 v 1.72819 c 0,0.9505 -0.02343,1.72378 -0.05208,1.7184 -0.02864,-0.005 -1.458122,-0.78708 -3.1766232,-1.7371 z"
       id="path2994" />
    <path
       style="fill:none;stroke:#736e75;stroke-width:0.6;stroke-linecap:butt;stroke-linejoin:miter;stroke-miterlimit:4;stroke-dasharray:none;stroke-opacity:1;marker-end:url(#Arrow2Lend-3-4)"
       d="M 76.458796,186.13689 H 93.211849"
       id="path3898-3-7" />
    <g
       inkscape:label=""
       transform="matrix(1.3677479,0,0,1.3677479,-61.286448,64.723952)"
       id="g6866"
       style="fill:#736e75;fill-opacity:1;stroke:#736e75;stroke-opacity:1">
      <g
         id="g5644"
         style="fill:#736e75;fill-opacity:1;stroke:#736e75;stroke-opacity:1">
        <g
           style="fill:#736e75;fill-opacity:1;stroke:#736e75;stroke-opacity:1"
           id="g2223">
          <use
             xlink:href="#symbol6317"
             x="94.292999"
             y="79.445"
             id="use2859"
             width="100%"
             height="100%"
             style="fill:#736e75;fill-opacity:1;stroke:#736e75;stroke-opacity:1" />
        </g>
        <g
           style="fill:#736e75;fill-opacity:1;stroke:#736e75;stroke-opacity:1"
           id="g2967">
          <use
             xlink:href="#symbol4719"
             x="91.925003"
             y="81.962997"
             id="use9086"
             width="100%"
             height="100%"
             style="fill:#736e75;fill-opacity:1;stroke:#736e75;stroke-opacity:1" />
        </g>
        <g
           style="fill:#736e75;fill-opacity:1;stroke:#736e75;stroke-opacity:1"
           id="g6353">
          <use
             xlink:href="#symbol2653"
             x="99.482002"
             y="83.457001"
             id="use1837"
             width="100%"
             height="100%"
             style="fill:#736e75;fill-opacity:1;stroke:#736e75;stroke-opacity:1" />
        </g>
      </g>
    </g>
    <g
       inkscape:label=""
       transform="matrix(1.3677479,0,0,1.3677479,-30.841983,78.776604)"
       id="g7217"
       style="fill:#736e75;fill-opacity:1;stroke:#736e75;stroke-opacity:1">
      <g
         id="g2677"
         style="fill:#736e75;fill-opacity:1;stroke:#736e75;stroke-opacity:1">
        <g
           style="fill:#736e75;fill-opacity:1;stroke:#736e75;stroke-opacity:1"
           id="g3911">
          <use
             xlink:href="#symbol7400"
             x="94.292999"
             y="79.445"
             id="use3079"
             width="100%"
             height="100%"
             style="fill:#736e75;fill-opacity:1;stroke:#736e75;stroke-opacity:1" />
        </g>
        <g
           style="fill:#736e75;fill-opacity:1;stroke:#736e75;stroke-opacity:1"
           id="g9756">
          <use
             xlink:href="#symbol291"
             x="91.925003"
             y="81.962997"
             id="use8418"
             width="100%"
             height="100%"
             style="fill:#736e75;fill-opacity:1;stroke:#736e75;stroke-opacity:1" />
        </g>
        <g
           style="fill:#736e75;fill-opacity:1;stroke:#736e75;stroke-opacity:1"
           id="g7694">
          <use
             xlink:href="#symbol4266"
             x="99.482002"
             y="83.457001"
             id="use3500"
             width="100%"
             height="100%"
             style="fill:#736e75;fill-opacity:1;stroke:#736e75;stroke-opacity:1" />
        </g>
      </g>
    </g>
    <g
       inkscape:label=""
       transform="matrix(1.33748,0,0,1.33748,-95.426358,132.63261)"
       id="g8650">
      <g
         id="g654">
        <g
           style="fill:#000000;fill-opacity:1"
           id="g1679">
          <use
             xlink:href="#symbol2332"
             x="91.925003"
             y="81.962997"
             id="use5733"
             width="100%"
             height="100%" />
          <use
             xlink:href="#symbol9693"
             x="95.799454"
             y="81.962997"
             id="use7248"
             width="100%"
             height="100%" />
          <use
             xlink:href="#symbol6015"
             x="100.78075"
             y="81.962997"
             id="use5460"
             width="100%"
             height="100%" />
        </g>
      </g>
    </g>
  </g>
</svg>
