<?xml version="1.0" encoding="UTF-8" standalone="no"?>
<!-- Created with Inkscape (http://www.inkscape.org/) -->

<svg
   version="1.1"
   id="svg824"
   xml:space="preserve"
   width="565.14874"
   height="841.40552"
   viewBox="0 0 565.14874 841.40552"
   sodipodi:docname="dimple_margin.svg"
   inkscape:version="1.1.2 (b8e25be8, 2022-02-05)"
   xmlns:inkscape="http://www.inkscape.org/namespaces/inkscape"
   xmlns:sodipodi="http://sodipodi.sourceforge.net/DTD/sodipodi-0.dtd"
   xmlns="http://www.w3.org/2000/svg"
   xmlns:svg="http://www.w3.org/2000/svg"><defs
     id="defs828" /><sodipodi:namedview
     id="namedview826"
     pagecolor="#ffffff"
     bordercolor="#666666"
     borderopacity="1.0"
     inkscape:pageshadow="2"
     inkscape:pageopacity="0.0"
     inkscape:pagecheckerboard="0"
     showgrid="false"
     fit-margin-top="300"
     fit-margin-left="0"
     fit-margin-right="0"
     fit-margin-bottom="200"
     inkscape:zoom="0.49441831"
     inkscape:cx="234.61914"
     inkscape:cy="381.2561"
     inkscape:window-width="1312"
     inkscape:window-height="847"
     inkscape:window-x="68"
     inkscape:window-y="25"
     inkscape:window-maximized="0"
     inkscape:current-layer="g830" /><g
     id="g830"
     inkscape:groupmode="layer"
     inkscape:label="dimple"
     transform="matrix(1.3333333,0,0,1.3333333,-0.00188942,157.67734)"><g
       id="g832"><g
         id="g834"><path
           d="m 263.992,292.184 -73.394,-41.762 -0.008,-5.692 c -0.004,-5.613 -0.149,-5.773 -10.59,-11.714 -10.066,-5.727 -11.062,-6 -20.332,-5.571 l -9.75,0.45 -31.641,-18.207 -31.644,-18.208 v -23.468 l 4.562,2.765 c 2.512,1.524 58.934,33.594 125.379,71.27 66.446,37.676 120.996,68.641 121.219,68.816 0.227,0.176 0.227,5.442 0,11.699 l -0.41,11.383 z"
           style="fill:#d2ab22;fill-opacity:1;fill-rule:nonzero;stroke:#d2ab22;stroke-width:3.18563;stroke-linecap:butt;stroke-linejoin:miter;stroke-miterlimit:4;stroke-dasharray:none;stroke-opacity:1"
           id="path836" /></g><g
         id="g838"><path
           d="m 86.059,166.652 h 25.109 m 227.59,143.493 h 25.109 M 111.168,166.652 363.867,310.145 M 86.059,166.652 338.758,310.145"
           style="fill:none;stroke:#000000;stroke-width:0.580878;stroke-linecap:butt;stroke-linejoin:miter;stroke-miterlimit:4;stroke-dasharray:none;stroke-opacity:1"
           id="path840" /></g><g
         id="g842"><path
           d="m 354.867,327.016 61.137,34.117"
           style="fill:none;stroke:#000000;stroke-width:1.70079;stroke-linecap:butt;stroke-linejoin:miter;stroke-miterlimit:4;stroke-dasharray:none;stroke-opacity:1"
           id="path844" /></g><g
         id="g846"
         transform="matrix(-1,-0.558058,0.558058,-1,0,0)"><path
           d="m -455.012,-91.76 -17.852,-6.566 17.85,-6.562 c -2.849,3.875 -2.836,9.176 0.002,13.128 z"
           style="fill:#000000;fill-opacity:1;fill-rule:evenodd;stroke:#000000;stroke-width:1.02106;stroke-linecap:butt;stroke-linejoin:round;stroke-miterlimit:4;stroke-dasharray:none;stroke-opacity:1"
           id="path848" /></g><g
         id="g850"><path
           d="m 8.133,178.961 32.379,18.348"
           style="fill:none;stroke:#000000;stroke-width:1.70079;stroke-linecap:butt;stroke-linejoin:miter;stroke-miterlimit:4;stroke-dasharray:none;stroke-opacity:1"
           id="path852" /></g><g
         id="g854"
         transform="matrix(-1,-0.566643,0.566643,-1,0,0)"><path
           d="m -99.475,-125.414 -17.787,-6.539 17.786,-6.539 c -2.843,3.861 -2.826,9.144 0.001,13.078 z"
           style="fill:#000000;fill-opacity:1;fill-rule:evenodd;stroke:#000000;stroke-width:1.01732;stroke-linecap:butt;stroke-linejoin:round;stroke-miterlimit:4;stroke-dasharray:none;stroke-opacity:1"
           id="path856" /></g><g
         id="g858"><path
           d="M 205.734,181.5 173.355,163.152"
           style="fill:none;stroke:#736e75;stroke-width:1.70079;stroke-linecap:butt;stroke-linejoin:miter;stroke-miterlimit:4;stroke-dasharray:none;stroke-opacity:1"
           id="path860" /></g><g
         id="g862"
         transform="matrix(1,0.566644,-0.566644,1,0,0)"><path
           d="m 217.021,55.71 -17.784,-6.54 17.784,-6.538 c -2.841,3.86 -2.824,9.143 0,13.078 z"
           style="fill:#736e75;fill-opacity:1;fill-rule:evenodd;stroke:#736e75;stroke-width:1.01732;stroke-linecap:butt;stroke-linejoin:round;stroke-miterlimit:4;stroke-dasharray:none;stroke-opacity:1"
           id="path864" /></g><g
         id="g866"><path
           d="M 86.059,166.652 V 192.52"
           style="fill:none;stroke:#000000;stroke-width:0.580878;stroke-linecap:butt;stroke-linejoin:miter;stroke-miterlimit:4;stroke-dasharray:none;stroke-opacity:1"
           id="path868" /></g><g
         id="g870"><path
           d="m 363.867,310.145 v 25.871"
           style="fill:none;stroke:#000000;stroke-width:0.580878;stroke-linecap:butt;stroke-linejoin:miter;stroke-miterlimit:4;stroke-dasharray:none;stroke-opacity:1"
           id="path872" /></g><g
         id="g874"><path
           d="m 338.758,310.145 v 25.871"
           style="fill:none;stroke:#000000;stroke-width:0.580878;stroke-linecap:butt;stroke-linejoin:miter;stroke-miterlimit:4;stroke-dasharray:none;stroke-opacity:1"
           id="path876" /></g><g
         id="g878"><path
           d="m 86.059,192.52 63.711,36.617 m 40.183,22.25 148.805,84.629 h 25.109"
           style="fill:none;stroke:#000000;stroke-width:0.580878;stroke-linecap:butt;stroke-linejoin:miter;stroke-miterlimit:4;stroke-dasharray:none;stroke-opacity:1"
           id="path880" /></g><g
         id="g882"><path
           d="m 170.461,228.855 19.492,11.254 v 11.278"
           style="fill:none;stroke:#000000;stroke-width:0.580878;stroke-linecap:butt;stroke-linejoin:miter;stroke-miterlimit:4;stroke-dasharray:none;stroke-opacity:1"
           id="path884" /></g><g
         id="g886"><path
           d="m 4.074,241.07 v -11.859 l 19.492,11.254 v 11.277"
           style="fill:none;stroke:#000000;stroke-width:0.580878;stroke-linecap:butt;stroke-linejoin:miter;stroke-miterlimit:4;stroke-dasharray:none;stroke-opacity:1"
           id="path888" /></g><g
         id="g890"><path
           d="M 170.461,228.855 4.074,229.211"
           style="fill:none;stroke:#000000;stroke-width:0.580878;stroke-linecap:butt;stroke-linejoin:miter;stroke-miterlimit:4;stroke-dasharray:none;stroke-opacity:1"
           id="path892" /></g><g
         id="g894"><path
           d="m 23.566,240.465 166.387,-0.356"
           style="fill:none;stroke:#000000;stroke-width:0.580878;stroke-linecap:butt;stroke-linejoin:miter;stroke-miterlimit:4;stroke-dasharray:none;stroke-opacity:1"
           id="path896" /></g><g
         id="g898"><path
           d="m 4.074,241.07 19.492,10.672 166.387,-0.355"
           style="fill:none;stroke:#000000;stroke-width:0.580878;stroke-linecap:butt;stroke-linejoin:miter;stroke-miterlimit:4;stroke-dasharray:none;stroke-opacity:1"
           id="path900" /></g><g
         id="g902"><path
           d="m 336.848,228.5 19.492,11.254 v 11.277"
           style="fill:none;stroke:#000000;stroke-width:0.580878;stroke-linecap:butt;stroke-linejoin:miter;stroke-miterlimit:4;stroke-dasharray:none;stroke-opacity:1"
           id="path904" /></g><g
         id="g906"><path
           d="m 336.848,228.5 -116.594,0.355"
           style="fill:none;stroke:#000000;stroke-width:0.580878;stroke-linecap:butt;stroke-linejoin:miter;stroke-miterlimit:4;stroke-dasharray:none;stroke-opacity:1"
           id="path908" /></g><g
         id="g910"><path
           d="M 240.875,240.109 356.34,239.754"
           style="fill:none;stroke:#000000;stroke-width:0.580878;stroke-linecap:butt;stroke-linejoin:miter;stroke-miterlimit:4;stroke-dasharray:none;stroke-opacity:1"
           id="path912" /></g><g
         id="g914"><path
           d="m 260.34,251.387 96,-0.356"
           style="fill:none;stroke:#000000;stroke-width:0.580878;stroke-linecap:butt;stroke-linejoin:miter;stroke-miterlimit:4;stroke-dasharray:none;stroke-opacity:1"
           id="path916" /></g><g
         id="g918"><path
           d="m 359.336,234.852 h 47.488"
           style="fill:none;stroke:#000000;stroke-width:1.70079;stroke-linecap:butt;stroke-linejoin:miter;stroke-miterlimit:4;stroke-dasharray:none;stroke-opacity:1"
           id="path920" /></g><g
         id="g922"
         transform="scale(-1)"><path
           d="m -388.641,-227.309 -20.441,-7.515 20.441,-7.516 c -3.265,4.438 -3.246,10.508 0,15.031 z"
           style="fill:#000000;fill-opacity:1;fill-rule:evenodd;stroke:#000000;stroke-width:1.16929;stroke-linecap:butt;stroke-linejoin:round;stroke-miterlimit:4;stroke-dasharray:none;stroke-opacity:1"
           id="path924" /></g><g
         id="g926"><path
           d="M 8.133,178.961 H 55.621"
           style="fill:none;stroke:#000000;stroke-width:1.70079;stroke-linecap:butt;stroke-linejoin:miter;stroke-miterlimit:4;stroke-dasharray:none;stroke-opacity:1"
           id="path928" /></g><g
         id="g930"
         transform="scale(-1)"><path
           d="m -37.438,-171.414 -20.441,-7.52 20.441,-7.515 c -3.265,4.437 -3.246,10.508 0,15.035 z"
           style="fill:#000000;fill-opacity:1;fill-rule:evenodd;stroke:#000000;stroke-width:1.16929;stroke-linecap:butt;stroke-linejoin:round;stroke-miterlimit:4;stroke-dasharray:none;stroke-opacity:1"
           id="path932" /></g><g
         id="g934"><path
           d="M 8.133,178.961 V 131.473"
           style="fill:none;stroke:#000000;stroke-width:1.70079;stroke-linecap:butt;stroke-linejoin:miter;stroke-miterlimit:4;stroke-dasharray:none;stroke-opacity:1"
           id="path936" /></g><g
         id="g938"
         transform="rotate(90)"><path
           d="m 149.656,-0.586 -20.441,-7.516 20.441,-7.515 c -3.265,4.437 -3.246,10.508 0,15.031 z"
           style="fill:#000000;fill-opacity:1;fill-rule:evenodd;stroke:#000000;stroke-width:1.16929;stroke-linecap:butt;stroke-linejoin:round;stroke-miterlimit:4;stroke-dasharray:none;stroke-opacity:1"
           id="path940" /></g><path
         d="m 58.828,196.445 c 0.25,-0.996 1.184,-4.668 3.926,-4.668 0.187,0 1.184,0 1.992,0.496 -1.121,0.25 -1.867,1.184 -1.867,2.18 0,0.625 0.433,1.371 1.492,1.371 0.875,0 2.121,-0.683 2.121,-2.304 0,-2.055 -2.304,-2.618 -3.676,-2.618 -2.304,0 -3.675,2.118 -4.175,2.993 -0.996,-2.618 -3.114,-2.993 -4.297,-2.993 -4.11,0 -6.414,5.11 -6.414,6.106 0,0.437 0.433,0.437 0.496,0.437 0.312,0 0.437,-0.125 0.5,-0.437 1.371,-4.235 3.984,-5.231 5.355,-5.231 0.75,0 2.117,0.371 2.117,2.676 0,1.246 -0.683,3.863 -2.117,9.469 -0.621,2.43 -2.054,4.109 -3.797,4.109 -0.25,0 -1.121,0 -1.996,-0.496 0.996,-0.25 1.871,-1.058 1.871,-2.18 0,-1.058 -0.875,-1.371 -1.433,-1.371 -1.246,0 -2.18,0.996 -2.18,2.305 0,1.805 1.93,2.617 3.676,2.617 2.676,0 4.109,-2.804 4.172,-2.992 0.5,1.434 1.929,2.992 4.297,2.992 4.113,0 6.355,-5.109 6.355,-6.105 0,-0.438 -0.312,-0.438 -0.437,-0.438 -0.375,0 -0.438,0.188 -0.559,0.438 -1.309,4.297 -3.988,5.23 -5.234,5.23 -1.559,0 -2.18,-1.246 -2.18,-2.613 0,-0.875 0.187,-1.746 0.621,-3.488 z"
         style="fill:#000000;fill-opacity:1;fill-rule:nonzero;stroke:none"
         id="path942" /><path
         d="m 73.418,147.723 c 0.187,-0.559 0.187,-0.621 0.187,-0.934 0,-0.684 -0.562,-1.059 -1.183,-1.059 -0.375,0 -1,0.25 -1.371,0.809 -0.063,0.25 -0.438,1.434 -0.563,2.18 -0.308,0.996 -0.558,2.117 -0.808,3.179 l -1.805,7.161 c -0.125,0.562 -1.871,3.363 -4.488,3.363 -1.992,0 -2.426,-1.742 -2.426,-3.238 0,-1.805 0.684,-4.297 1.992,-7.786 0.621,-1.621 0.809,-2.054 0.809,-2.867 0,-1.742 -1.246,-3.238 -3.239,-3.238 -3.8,0 -5.23,5.793 -5.23,6.105 0,0.438 0.371,0.438 0.434,0.438 0.437,0 0.437,-0.125 0.625,-0.75 1.121,-3.738 2.675,-4.918 4.046,-4.918 0.313,0 0.997,0 0.997,1.242 0,1 -0.434,2.059 -0.684,2.805 -1.621,4.234 -2.305,6.476 -2.305,8.347 0,3.551 2.492,4.735 4.86,4.735 1.554,0 2.863,-0.688 3.984,-1.809 -0.496,2.055 -0.996,4.051 -2.555,6.168 -1.058,1.309 -2.55,2.492 -4.359,2.492 -0.559,0 -2.367,-0.125 -3.051,-1.683 0.621,0 1.184,0 1.68,-0.5 0.437,-0.309 0.812,-0.871 0.812,-1.617 0,-1.246 -1.058,-1.371 -1.433,-1.371 -0.934,0 -2.242,0.625 -2.242,2.554 0,1.992 1.742,3.489 4.234,3.489 4.051,0 8.16,-3.614 9.281,-8.098 z"
         style="fill:#000000;fill-opacity:1;fill-rule:nonzero;stroke:none"
         id="path944" /><path
         d="m 13.816,121.004 c 2.118,-2.305 3.301,-3.301 4.731,-4.547 0,0 2.43,-2.117 3.863,-3.547 3.801,-3.676 4.672,-5.609 4.672,-5.793 0,-0.375 -0.375,-0.375 -0.437,-0.375 -0.309,0 -0.372,0.063 -0.622,0.438 -1.183,1.929 -1.992,2.55 -2.929,2.55 -0.996,0 -1.43,-0.621 -2.055,-1.308 -0.746,-0.871 -1.43,-1.68 -2.738,-1.68 -2.992,0 -4.797,3.676 -4.797,4.547 0,0.188 0.125,0.438 0.434,0.438 0.374,0 0.437,-0.188 0.562,-0.438 0.746,-1.867 3.051,-1.867 3.363,-1.867 0.809,0 1.559,0.246 2.492,0.558 1.618,0.625 2.055,0.625 3.051,0.625 -1.433,1.68 -4.734,4.547 -5.48,5.168 l -3.614,3.364 c -2.679,2.679 -4.109,4.922 -4.109,5.234 0,0.371 0.434,0.371 0.496,0.371 0.313,0 0.375,-0.062 0.625,-0.496 0.934,-1.434 2.117,-2.492 3.426,-2.492 0.871,0 1.309,0.371 2.305,1.492 0.621,0.875 1.371,1.496 2.492,1.496 3.984,0 6.289,-5.043 6.289,-6.101 0,-0.188 -0.188,-0.438 -0.496,-0.438 -0.375,0 -0.438,0.25 -0.563,0.559 -0.933,2.554 -3.488,3.304 -4.797,3.304 -0.746,0 -1.496,-0.25 -2.304,-0.5 -1.371,-0.5 -1.992,-0.683 -2.801,-0.683 -0.063,0 -0.687,0 -1.059,0.121 z"
         style="fill:#000000;fill-opacity:1;fill-rule:nonzero;stroke:none"
         id="path946" /><path
         d="m 419.004,311.273 c 0.312,-1.433 0.437,-1.804 3.613,-1.804 0.938,0 1.246,0 1.246,-0.75 0,-0.496 -0.433,-0.496 -0.558,-0.496 -1.184,0 -4.114,0.125 -5.297,0.125 -1.184,0 -4.047,-0.125 -5.293,-0.125 -0.25,0 -0.746,0 -0.746,0.808 0,0.438 0.308,0.438 1.121,0.438 1.617,0 2.738,0 2.738,0.746 0,0.187 0,0.312 -0.125,0.625 l -5.355,21.426 c -0.375,1.496 -0.438,1.867 -3.614,1.867 -0.933,0 -1.246,0 -1.246,0.812 0,0.434 0.438,0.434 0.563,0.434 1.183,0 4.047,-0.125 5.23,-0.125 1.184,0 4.114,0.125 5.297,0.125 0.309,0 0.809,0 0.809,-0.746 0,-0.5 -0.313,-0.5 -1.184,-0.5 -0.746,0 -0.933,0 -1.683,-0.063 -0.872,-0.062 -0.997,-0.246 -0.997,-0.683 0,-0.313 0.063,-0.625 0.125,-0.934 z"
         style="fill:#000000;fill-opacity:1;fill-rule:nonzero;stroke:none"
         id="path948" /><path
         d="m 388.875,190.125 c 0.313,-1.43 0.434,-1.805 3.613,-1.805 0.934,0 1.246,0 1.246,-0.75 0,-0.496 -0.437,-0.496 -0.562,-0.496 -1.184,0 -4.11,0.125 -5.293,0.125 -1.184,0 -4.051,-0.125 -5.297,-0.125 -0.246,0 -0.746,0 -0.746,0.809 0,0.437 0.312,0.437 1.121,0.437 1.621,0 2.742,0 2.742,0.746 0,0.188 0,0.313 -0.125,0.625 l -5.359,21.426 c -0.371,1.496 -0.434,1.867 -3.61,1.867 -0.937,0 -1.246,0 -1.246,0.813 0,0.433 0.434,0.433 0.559,0.433 1.184,0 4.051,-0.125 5.234,-0.125 1.184,0 4.11,0.125 5.293,0.125 0.313,0 0.809,0 0.809,-0.746 0,-0.5 -0.309,-0.5 -1.184,-0.5 -0.746,0 -0.933,0 -1.679,-0.062 -0.871,-0.063 -0.996,-0.246 -0.996,-0.684 0,-0.312 0.062,-0.621 0.125,-0.933 z"
         style="fill:#000000;fill-opacity:1;fill-rule:nonzero;stroke:none"
         id="path950" /><path
         d="m 400.73,202.496 c 0,-0.746 0,-0.746 -0.812,-0.746 -1.805,1.742 -4.297,1.742 -5.418,1.742 v 1 c 0.625,0 2.492,0 3.988,-0.75 v 14.141 c 0,0.933 0,1.308 -2.742,1.308 h -1.058 v 0.997 c 0.496,0 3.921,-0.126 4.921,-0.126 0.871,0 4.36,0.126 4.981,0.126 v -0.997 h -1.059 c -2.801,0 -2.801,-0.375 -2.801,-1.308 z"
         style="fill:#000000;fill-opacity:1;fill-rule:nonzero;stroke:none"
         id="path952" /><g
         id="g954"><path
           d="M 241.129,253.859 C 187.219,223.215 131.094,191.289 116.402,182.91 l -26.707,-15.23 10.707,-0.16 10.703,-0.161 123.469,70.094 c 67.906,38.551 124.262,70.574 125.238,71.16 1.747,1.055 1.622,1.071 -9.449,1.016 l -11.218,-0.055 z"
           style="fill:#d2ab22;fill-opacity:1;fill-rule:nonzero;stroke:#d2ab22;stroke-width:0.669504;stroke-linecap:butt;stroke-linejoin:miter;stroke-miterlimit:4;stroke-dasharray:none;stroke-opacity:1"
           id="path956" /></g><g
         id="g958"><path
           d="m 339.516,323.27 0.218,-12.395 11.664,-0.004 11.661,-0.004 v 9.449 c 0,5.196 -0.164,9.446 -0.368,9.446 -0.203,0 -1.925,-0.856 -3.828,-1.899 -2.812,-1.547 -3.597,-1.761 -4.207,-1.14 -0.898,0.91 -0.101,1.605 5.008,4.339 2.66,1.426 3.395,2.122 3.395,3.211 v 1.395 h -23.762 z"
           style="fill:#d2ab22;fill-opacity:1;fill-rule:nonzero;stroke:#d2ab22;stroke-width:0.669504;stroke-linecap:butt;stroke-linejoin:miter;stroke-miterlimit:4;stroke-dasharray:none;stroke-opacity:1"
           id="path960" /></g><g
         id="g962"><path
           d="M 15.43,235.059 7.023,230.164 42,229.758 c 19.238,-0.223 55.637,-0.387 80.887,-0.363 l 45.906,0.039 5.758,2.921 c 3.168,1.606 7.172,3.809 8.898,4.895 l 3.141,1.977 -58.938,0.39 C 95.234,239.836 58.613,240 46.273,239.984 l -22.437,-0.027 z"
           style="fill:#d2ab22;fill-opacity:1;fill-rule:nonzero;stroke:#d2ab22;stroke-width:0.669504;stroke-linecap:butt;stroke-linejoin:miter;stroke-miterlimit:4;stroke-dasharray:none;stroke-opacity:1"
           id="path964" /></g><g
         id="g966"><path
           d="m 24.133,246.309 v -4.922 l 46.5,-0.391 c 25.574,-0.215 62.476,-0.394 82.012,-0.394 31.835,0 35.546,0.097 35.867,0.933 0.199,0.516 0.359,2.731 0.359,4.922 v 3.988 l -39.414,0.395 c -21.676,0.215 -58.742,0.39 -82.367,0.39 H 24.133 Z"
           style="fill:#d2ab22;fill-opacity:1;fill-rule:nonzero;stroke:#d2ab22;stroke-width:0.669504;stroke-linecap:butt;stroke-linejoin:miter;stroke-miterlimit:4;stroke-dasharray:none;stroke-opacity:1"
           id="path968" /></g><g
         id="g970"><path
           d="m 231.977,234.531 -8.563,-4.851 56.391,-0.297 56.386,-0.297 9.149,5.168 9.144,5.168 -113.945,-0.039 z"
           style="fill:#d2ab22;fill-opacity:1;fill-rule:nonzero;stroke:#d2ab22;stroke-width:0.669504;stroke-linecap:butt;stroke-linejoin:miter;stroke-miterlimit:4;stroke-dasharray:none;stroke-opacity:1"
           id="path972" /></g><g
         id="g974"><path
           d="m 255.891,248.148 c -2.274,-1.312 -6.129,-3.543 -8.563,-4.957 l -4.43,-2.566 56.54,-0.012 56.535,-0.011 v 10.039 L 308,250.59 260.023,250.535 Z"
           style="fill:#d2ab22;fill-opacity:1;fill-rule:nonzero;stroke:#d2ab22;stroke-width:0.669504;stroke-linecap:butt;stroke-linejoin:miter;stroke-miterlimit:4;stroke-dasharray:none;stroke-opacity:1"
           id="path976" /></g><g
         id="g978"><path
           d="m 13.801,245.688 -8.86,-4.895 -0.171,-5.172 c -0.094,-2.887 0.062,-5.082 0.359,-4.965 0.293,0.114 4.422,2.449 9.176,5.196 l 8.644,4.992 v 4.898 c 0,2.696 -0.066,4.887 -0.144,4.871 -0.082,-0.015 -4.133,-2.23 -9.008,-4.925 z"
           style="fill:#d2ab22;fill-opacity:1;fill-rule:nonzero;stroke:#d2ab22;stroke-width:0.669504;stroke-linecap:butt;stroke-linejoin:miter;stroke-miterlimit:4;stroke-dasharray:none;stroke-opacity:1"
           id="path980" /></g><g
         id="g982"><path
           d="m 205.734,181.5 h 47.489"
           style="fill:none;stroke:#736e75;stroke-width:1.70079;stroke-linecap:butt;stroke-linejoin:miter;stroke-miterlimit:4;stroke-dasharray:none;stroke-opacity:1"
           id="path984" /></g><g
         id="g986"
         transform="scale(-1)"><path
           d="m -235.039,-173.953 -20.441,-7.52 20.441,-7.515 c -3.266,4.437 -3.246,10.511 0,15.035 z"
           style="fill:#736e75;fill-opacity:1;fill-rule:evenodd;stroke:#736e75;stroke-width:1.16929;stroke-linecap:butt;stroke-linejoin:round;stroke-miterlimit:4;stroke-dasharray:none;stroke-opacity:1"
           id="path988" /></g><path
         d="m 79.512,349.645 c 0,-0.118 0,-0.18 -0.653,-0.829 -4.679,-4.742 -5.921,-11.91 -5.921,-17.714 0,-6.575 1.421,-13.149 6.101,-17.832 0.473,-0.473 0.473,-0.532 0.473,-0.649 0,-0.297 -0.117,-0.418 -0.356,-0.418 -0.414,0 -3.789,2.609 -6.043,7.406 -1.894,4.149 -2.367,8.352 -2.367,11.493 0,2.96 0.414,7.523 2.488,11.847 2.309,4.621 5.508,7.11 5.922,7.11 0.239,0 0.356,-0.118 0.356,-0.414 z"
         style="fill:#000000;fill-opacity:1;fill-rule:nonzero;stroke:none"
         id="path990" /><path
         d="m 94.262,337.738 c 0.176,1.481 1.183,3.078 2.961,3.078 0.828,0 3.14,-0.531 3.14,-3.613 v -2.133 h -0.949 v 2.133 c 0,2.192 -0.949,2.43 -1.363,2.43 -1.242,0 -1.422,-1.719 -1.422,-1.895 v -7.523 c 0,-1.602 0,-3.082 -1.359,-4.504 -1.485,-1.481 -3.379,-2.074 -5.157,-2.074 -3.14,0 -5.746,1.777 -5.746,4.265 0,1.125 0.77,1.778 1.778,1.778 1.066,0 1.718,-0.77 1.718,-1.719 0,-0.473 -0.179,-1.715 -1.957,-1.715 1.067,-1.363 2.906,-1.777 4.09,-1.777 1.895,0 4.027,1.48 4.027,4.855 v 1.364 c -1.953,0.117 -4.562,0.238 -6.929,1.363 -2.844,1.301 -3.793,3.258 -3.793,4.918 0,3.078 3.672,4.027 6.043,4.027 2.488,0 4.207,-1.543 4.918,-3.258 z m -0.239,-6.222 v 3.793 c 0,3.554 -2.726,4.855 -4.441,4.855 -1.836,0 -3.379,-1.301 -3.379,-3.195 0,-2.074 1.602,-5.215 7.82,-5.453 z"
         style="fill:#000000;fill-opacity:1;fill-rule:nonzero;stroke:none"
         id="path992" /><path
         d="m 111.488,331.102 c 0,-2.903 -0.414,-7.465 -2.488,-11.79 -2.25,-4.621 -5.508,-7.109 -5.863,-7.109 -0.239,0 -0.418,0.18 -0.418,0.418 0,0.117 0,0.176 0.711,0.887 3.734,3.734 5.867,9.715 5.867,17.594 0,6.515 -1.363,13.152 -6.043,17.89 -0.535,0.473 -0.535,0.535 -0.535,0.653 0,0.238 0.179,0.414 0.418,0.414 0.355,0 3.789,-2.606 5.98,-7.407 1.957,-4.144 2.371,-8.351 2.371,-11.55 z"
         style="fill:#000000;fill-opacity:1;fill-rule:nonzero;stroke:none"
         id="path994" /><path
         d="m 196.793,120.375 -0.605,-0.543 c 0,0 -1.454,1.816 -3.153,1.816 -0.906,0 -1.875,-0.546 -2.543,-0.968 -1.031,-0.606 -1.695,-0.848 -2.363,-0.848 -1.453,0 -2.242,0.848 -4.18,3.027 l 0.606,0.547 c 0,0 1.453,-1.816 3.152,-1.816 0.906,0 1.875,0.543 2.543,0.906 1.031,0.668 1.758,0.91 2.422,0.91 1.453,0 2.183,-0.847 4.121,-3.031 z"
         style="fill:#736e75;fill-opacity:1;fill-rule:nonzero;stroke:none"
         id="path996" /><path
         d="m 177.738,152.371 c -0.363,1.516 -0.484,1.817 -3.515,1.817 -0.664,0 -1.028,0 -1.028,0.789 0,0.425 0.364,0.425 1.028,0.425 h 13.812 c 6.117,0 10.664,-4.547 10.664,-8.363 0,-2.785 -2.242,-5.027 -6,-5.449 4,-0.727 8.059,-3.574 8.059,-7.27 0,-2.847 -2.547,-5.332 -7.149,-5.332 h -13.023 c -0.731,0 -1.094,0 -1.094,0.789 0,0.422 0.363,0.422 1.094,0.422 0.059,0 0.785,0 1.453,0.063 0.664,0.121 1.027,0.121 1.027,0.664 0,0.121 -0.058,0.242 -0.121,0.726 z m 5.813,-11.144 2.426,-9.575 c 0.363,-1.332 0.421,-1.453 2.058,-1.453 h 5.027 c 3.395,0 4.18,2.301 4.18,4 0,3.391 -3.332,7.028 -7.996,7.028 z m -1.696,12.961 c -0.543,0 -0.605,0 -0.847,0 -0.422,-0.059 -0.543,-0.122 -0.543,-0.422 0,-0.121 0,-0.184 0.242,-0.848 l 2.664,-10.785 h 7.27 c 3.695,0 4.484,2.847 4.484,4.484 0,3.817 -3.453,7.571 -8.059,7.571 z"
         style="fill:#736e75;fill-opacity:1;fill-rule:nonzero;stroke:none"
         id="path998" /><path
         d="m 207.582,158.344 c -0.242,0.91 -1.152,2.363 -2.547,2.363 -0.058,0 -0.906,0 -1.453,-0.363 1.09,-0.364 1.211,-1.332 1.211,-1.512 0,-0.609 -0.484,-0.973 -1.09,-0.973 -0.785,0 -1.574,0.61 -1.574,1.637 0,1.332 1.516,1.938 2.848,1.938 1.273,0 2.363,-0.727 3.027,-1.875 0.668,1.39 2.121,1.875 3.211,1.875 3.152,0 4.785,-3.332 4.785,-4.118 0,-0.363 -0.363,-0.363 -0.422,-0.363 -0.426,0 -0.426,0.18 -0.547,0.485 -0.543,1.878 -2.179,3.269 -3.695,3.269 -1.09,0 -1.633,-0.727 -1.633,-1.754 0,-0.73 0.664,-3.152 1.391,-6.18 0.547,-2.062 1.758,-2.726 2.668,-2.726 0.058,0 0.847,0 1.453,0.363 -0.848,0.242 -1.211,1.031 -1.211,1.516 0,0.543 0.484,0.969 1.09,0.969 0.605,0 1.515,-0.485 1.515,-1.637 0,-1.516 -1.757,-2 -2.789,-2 -1.394,0 -2.484,0.91 -3.027,1.941 -0.484,-1.094 -1.758,-1.941 -3.273,-1.941 -3.028,0 -4.723,3.332 -4.723,4.18 0,0.304 0.363,0.304 0.422,0.304 0.363,0 0.363,-0.062 0.547,-0.426 0.664,-2.117 2.363,-3.269 3.695,-3.269 0.906,0 1.633,0.484 1.633,1.758 0,0.543 -0.364,1.875 -0.606,2.843 z"
         style="fill:#736e75;fill-opacity:1;fill-rule:nonzero;stroke:none"
         id="path1000" /><path
         d="m 283.301,159.594 -0.606,-0.543 c 0,0 -1.453,1.816 -3.148,1.816 -0.91,0 -1.879,-0.547 -2.547,-0.969 -1.027,-0.605 -1.695,-0.847 -2.363,-0.847 -1.453,0 -2.239,0.847 -4.18,3.027 l 0.605,0.547 c 0,0 1.458,-1.82 3.153,-1.82 0.906,0 1.879,0.547 2.543,0.91 1.031,0.668 1.758,0.91 2.426,0.91 1.453,0 2.179,-0.848 4.117,-3.031 z"
         style="fill:#736e75;fill-opacity:1;fill-rule:nonzero;stroke:none"
         id="path1002" /><path
         d="m 264.246,191.59 c -0.363,1.515 -0.484,1.816 -3.516,1.816 -0.664,0 -1.027,0 -1.027,0.789 0,0.422 0.363,0.422 1.027,0.422 h 13.813 c 6.121,0 10.664,-4.543 10.664,-8.359 0,-2.785 -2.242,-5.028 -6,-5.449 4,-0.731 8.059,-3.575 8.059,-7.27 0,-2.848 -2.543,-5.332 -7.149,-5.332 h -13.023 c -0.727,0 -1.09,0 -1.09,0.785 0,0.426 0.363,0.426 1.09,0.426 0.058,0 0.785,0 1.453,0.062 0.668,0.122 1.031,0.122 1.031,0.665 0,0.121 -0.062,0.242 -0.121,0.726 z m 5.816,-11.145 2.422,-9.574 c 0.364,-1.332 0.426,-1.453 2.059,-1.453 h 5.031 c 3.391,0 4.18,2.301 4.18,4 0,3.391 -3.332,7.027 -7.996,7.027 z m -1.699,12.961 c -0.543,0 -0.605,0 -0.847,0 -0.422,-0.058 -0.543,-0.121 -0.543,-0.422 0,-0.121 0,-0.183 0.242,-0.847 l 2.664,-10.785 h 7.269 c 3.696,0 4.485,2.847 4.485,4.484 0,3.816 -3.453,7.57 -8.059,7.57 z"
         style="fill:#736e75;fill-opacity:1;fill-rule:nonzero;stroke:none"
         id="path1004" /><path
         d="m 302.391,190.234 c 0.121,-0.363 0.121,-0.425 0.121,-0.605 0,-0.547 -0.426,-0.848 -0.91,-0.848 -0.301,0 -0.79,0.121 -1.09,0.606 -0.121,0.179 -0.305,1.027 -0.426,1.574 l -0.606,2.242 c -0.121,0.664 -0.968,4.059 -1.089,4.359 0,0 -1.211,2.364 -3.27,2.364 -1.879,0 -1.879,-1.758 -1.879,-2.242 0,-1.454 0.606,-3.149 1.453,-5.27 0.305,-0.848 0.426,-1.148 0.426,-1.637 0,-1.269 -1.09,-2.3 -2.547,-2.3 -2.726,0 -3.937,3.695 -3.937,4.179 0,0.305 0.363,0.305 0.484,0.305 0.363,0 0.363,-0.121 0.484,-0.426 0.668,-2.242 1.821,-3.269 2.911,-3.269 0.422,0 0.664,0.3 0.664,0.906 0,0.668 -0.242,1.215 -0.364,1.578 -1.332,3.332 -1.574,4.301 -1.574,5.512 0,0.422 0,1.695 1.031,2.605 0.848,0.664 2,0.785 2.727,0.785 1.09,0 2.059,-0.363 2.906,-1.211 -0.301,1.516 -0.605,2.668 -1.758,4 -0.726,0.848 -1.816,1.696 -3.269,1.696 -0.184,0 -1.453,0 -2,-0.848 1.453,-0.184 1.453,-1.453 1.453,-1.516 0,-0.847 -0.785,-1.031 -1.027,-1.031 -0.668,0 -1.578,0.547 -1.578,1.82 0,1.333 1.273,2.364 3.211,2.364 2.726,0 6.058,-2.121 6.906,-5.516 z"
         style="fill:#736e75;fill-opacity:1;fill-rule:nonzero;stroke:none"
         id="path1006" /></g></g></svg>
