<?xml version="1.0" encoding="UTF-8" standalone="no"?>
<!-- Created with Inkscape (http://www.inkscape.org/) -->

<svg
   width="197mm"
   height="197mm"
   viewBox="0 0 197 196.99999"
   version="1.1"
   id="svg4816"
   inkscape:version="1.1.2 (b8e25be8, 2022-02-05)"
   sodipodi:docname="simplefield.svg"
   xmlns:inkscape="http://www.inkscape.org/namespaces/inkscape"
   xmlns:sodipodi="http://sodipodi.sourceforge.net/DTD/sodipodi-0.dtd"
   xmlns:xlink="http://www.w3.org/1999/xlink"
   xmlns="http://www.w3.org/2000/svg"
   xmlns:svg="http://www.w3.org/2000/svg"
   xmlns:rdf="http://www.w3.org/1999/02/22-rdf-syntax-ns#"
   xmlns:cc="http://creativecommons.org/ns#"
   xmlns:dc="http://purl.org/dc/elements/1.1/">
  <metadata
     id="metadata2044">
    <rdf:RDF>
      <cc:Work
         rdf:about="">
        <dc:format>image/svg+xml</dc:format>
        <dc:type
           rdf:resource="http://purl.org/dc/dcmitype/StillImage" />
      </cc:Work>
    </rdf:RDF>
  </metadata>
  <sodipodi:namedview
     id="namedview4818"
     pagecolor="#ffffff"
     bordercolor="#666666"
     borderopacity="1.0"
     inkscape:pageshadow="2"
     inkscape:pageopacity="0.0"
     inkscape:pagecheckerboard="0"
     inkscape:document-units="mm"
     showgrid="false"
     inkscape:snap-global="true"
     inkscape:snap-object-midpoints="true"
     showguides="true"
     inkscape:guide-bbox="true"
     inkscape:snap-bbox="false"
     inkscape:snap-bbox-edge-midpoints="true"
     inkscape:bbox-paths="true"
     inkscape:zoom="0.82839421"
     inkscape:cx="313.25666"
     inkscape:cy="326.53536"
     inkscape:window-width="1369"
     inkscape:window-height="847"
     inkscape:window-x="71"
     inkscape:window-y="25"
     inkscape:window-maximized="1"
     inkscape:current-layer="layer1"
     fit-margin-top="0"
     fit-margin-left="0"
     fit-margin-right="0"
     fit-margin-bottom="0" />
  <defs
     id="defs4813">
    <marker
       style="overflow:visible"
       id="Arrow2Lstart"
       refX="0"
       refY="0"
       orient="auto"
       inkscape:stockid="Arrow2Lstart"
       inkscape:isstock="true">
      <path
         transform="matrix(1.1,0,0,1.1,1.1,0)"
         d="M 8.7185878,4.0337352 -2.2072895,0.01601326 8.7185884,-4.0017078 c -1.7454984,2.3720609 -1.7354408,5.6174519 -6e-7,8.035443 z"
         style="fill:context-stroke;fill-rule:evenodd;stroke:context-stroke;stroke-width:0.625;stroke-linejoin:round"
         id="path3998"
         inkscape:connector-curvature="0" />
    </marker>
    <marker
       style="overflow:visible"
       id="Arrow2Lend"
       refX="0"
       refY="0"
       orient="auto"
       inkscape:stockid="Arrow2Lend"
       inkscape:isstock="true">
      <path
         transform="matrix(-1.1,0,0,-1.1,-1.1,0)"
         d="M 8.7185878,4.0337352 -2.2072895,0.01601326 8.7185884,-4.0017078 c -1.7454984,2.3720609 -1.7354408,5.6174519 -6e-7,8.035443 z"
         style="fill:context-stroke;fill-rule:evenodd;stroke:context-stroke;stroke-width:0.625;stroke-linejoin:round"
         id="path4001"
         inkscape:connector-curvature="0" />
    </marker>
    <inkscape:perspective
       sodipodi:type="inkscape:persp3d"
       inkscape:vp_x="0 : 148.49998 : 1"
       inkscape:vp_y="0 : 999.99989 : 0"
       inkscape:vp_z="210 : 148.49998 : 1"
       inkscape:persp3d-origin="105 : 98.999989 : 1"
       id="perspective5196" />
    <marker
       style="overflow:visible"
       id="Arrow2Lend-3"
       refX="0"
       refY="0"
       orient="auto"
       inkscape:stockid="Arrow2Lend"
       inkscape:isstock="true">
      <path
         inkscape:connector-curvature="0"
         transform="matrix(-1.1,0,0,-1.1,-1.1,0)"
         d="M 8.7185878,4.0337352 -2.2072895,0.01601326 8.7185884,-4.0017078 c -1.7454984,2.3720609 -1.7354408,5.6174519 -6e-7,8.035443 z"
         style="fill:context-stroke;fill-rule:evenodd;stroke:#000000;stroke-width:0.625;stroke-linejoin:round;stroke-opacity:1"
         id="path4001-3" />
    </marker>
    <marker
       style="overflow:visible"
       id="Arrow2Lend-3-2"
       refX="0"
       refY="0"
       orient="auto"
       inkscape:stockid="Arrow2Lend"
       inkscape:isstock="true">
      <path
         inkscape:connector-curvature="0"
         transform="matrix(-1.1,0,0,-1.1,-1.1,0)"
         d="M 8.7185878,4.0337352 -2.2072895,0.01601326 8.7185884,-4.0017078 c -1.7454984,2.3720609 -1.7354408,5.6174519 -6e-7,8.035443 z"
         style="fill:context-stroke;fill-rule:evenodd;stroke:#000000;stroke-width:0.625;stroke-linejoin:round;stroke-opacity:1"
         id="path4001-3-4" />
    </marker>
    <g
       id="g9923">
      <symbol
         overflow="visible"
         id="symbol3491">
        <path
           style="stroke:none;"
           d=""
           id="path4154" />
      </symbol>
      <symbol
         overflow="visible"
         id="symbol8971">
        <path
           style="stroke:none;"
           d="M 2.765625 -3.734375 L 2.765625 -6.375 L 4.578125 -6.375 C 5.59375 -6.375 5.765625 -5.578125 5.765625 -5.125 C 5.765625 -4.359375 5.296875 -3.734375 4.328125 -3.734375 Z M 5.46875 -3.5625 C 6.546875 -3.765625 7.1875 -4.359375 7.1875 -5.125 C 7.1875 -6.046875 6.3125 -6.84375 4.71875 -6.84375 L 0.390625 -6.84375 L 0.390625 -6.375 L 1.46875 -6.375 L 1.46875 -0.46875 L 0.390625 -0.46875 L 0.390625 0 L 5.015625 0 C 6.671875 0 7.5 -0.875 7.5 -1.859375 C 7.5 -2.8125 6.65625 -3.484375 5.46875 -3.5625 Z M 4.609375 -0.46875 L 2.765625 -0.46875 L 2.765625 -3.375 L 4.703125 -3.375 C 4.90625 -3.375 5.375 -3.375 5.71875 -2.953125 C 6.046875 -2.53125 6.046875 -1.96875 6.046875 -1.859375 C 6.046875 -1.75 6.046875 -0.46875 4.609375 -0.46875 Z M 4.609375 -0.46875 "
           id="path2267" />
      </symbol>
      <symbol
         overflow="visible"
         id="symbol3349">
        <path
           style="stroke:none;"
           d=""
           id="path2582" />
      </symbol>
      <symbol
         overflow="visible"
         id="symbol7971">
        <path
           style="stroke:none;"
           d="M 3.671875 -2.21875 C 3.71875 -2.40625 3.796875 -2.75 3.796875 -2.78125 C 3.796875 -2.921875 3.6875 -3 3.5625 -3 C 3.4375 -3 3.3125 -2.921875 3.265625 -2.796875 C 3.25 -2.75 3.171875 -2.453125 3.125 -2.28125 C 3.03125 -1.875 3.03125 -1.875 2.921875 -1.484375 C 2.84375 -1.09375 2.828125 -1.03125 2.8125 -0.84375 C 2.84375 -0.703125 2.78125 -0.5625 2.625 -0.359375 C 2.53125 -0.25 2.390625 -0.125 2.15625 -0.125 C 1.875 -0.125 1.53125 -0.21875 1.53125 -0.765625 C 1.53125 -1.125 1.71875 -1.640625 1.859375 -2 C 1.984375 -2.296875 2 -2.359375 2 -2.484375 C 2 -2.8125 1.71875 -3.078125 1.34375 -3.078125 C 0.640625 -3.078125 0.328125 -2.125 0.328125 -2 C 0.328125 -1.921875 0.421875 -1.921875 0.453125 -1.921875 C 0.546875 -1.921875 0.546875 -1.953125 0.578125 -2.03125 C 0.75 -2.609375 1.046875 -2.875 1.328125 -2.875 C 1.4375 -2.875 1.5 -2.796875 1.5 -2.640625 C 1.5 -2.46875 1.4375 -2.328125 1.40625 -2.234375 C 1 -1.21875 1 -1.078125 1 -0.859375 C 1 -0.03125 1.75 0.0625 2.125 0.0625 C 2.265625 0.0625 2.59375 0.0625 2.90625 -0.390625 C 3.078125 -0.078125 3.453125 0.0625 3.875 0.0625 C 4.5 0.0625 4.8125 -0.46875 4.953125 -0.75 C 5.25 -1.34375 5.4375 -2.203125 5.4375 -2.53125 C 5.4375 -3.046875 5.140625 -3.078125 5.09375 -3.078125 C 4.90625 -3.078125 4.703125 -2.890625 4.703125 -2.703125 C 4.703125 -2.59375 4.78125 -2.53125 4.828125 -2.5 C 5 -2.359375 5.09375 -2.15625 5.09375 -1.9375 C 5.09375 -1.84375 4.796875 -0.125 3.90625 -0.125 C 3.34375 -0.125 3.34375 -0.625 3.34375 -0.75 C 3.34375 -0.9375 3.375 -1.046875 3.46875 -1.4375 Z M 3.671875 -2.21875 "
           id="path5243" />
      </symbol>
    </g>
  </defs>
  <g
     inkscape:label="Layer 1"
     inkscape:groupmode="layer"
     id="layer1"
     transform="translate(-4.51505, 54.1127)">
    <path
       style="fill:none;fill-opacity:1;stroke:#d73665;stroke-width:0.60000002;stroke-miterlimit:4;stroke-dasharray:none;stroke-opacity:1"
       id="path4899"
       sodipodi:type="arc"
       sodipodi:cx="38.37537"
       sodipodi:cy="61.01022"
       sodipodi:rx="19.848602"
       sodipodi:ry="19.848003"
       sodipodi:start="0"
       sodipodi:end="5.8265798"
       sodipodi:open="true"
       sodipodi:arc-type="arc"
       d="M 58.223972,61.01022 A 19.848602,19.848003 0 0 1 40.636198,80.729048 19.848602,19.848003 0 0 1 19.041801,65.502312 19.848602,19.848003 0 0 1 31.710215,42.314722 19.848602,19.848003 0 0 1 56.190569,52.259157"
       transform="rotate(-21.784588)" />
    <path
       style="fill:none;fill-opacity:1;stroke:#d73665;stroke-width:0.60000002;stroke-miterlimit:4;stroke-dasharray:none;stroke-opacity:1"
       id="path4899-5"
       sodipodi:type="arc"
       sodipodi:cx="38.37537"
       sodipodi:cy="61.01022"
       sodipodi:rx="29.834181"
       sodipodi:ry="29.833281"
       sodipodi:start="0"
       sodipodi:end="5.8265798"
       sodipodi:open="true"
       sodipodi:arc-type="arc"
       d="M 68.209551,61.01022 A 29.834181,29.833281 0 0 1 41.773591,90.649339 29.834181,29.833281 0 0 1 9.3153287,67.762226 29.834181,29.833281 0 0 1 28.35706,32.909256 29.834181,29.833281 0 0 1 65.153168,47.856609"
       transform="rotate(-21.784588)" />
    <path
       style="fill:none;fill-opacity:1;stroke:#d73665;stroke-width:0.60000002;stroke-miterlimit:4;stroke-dasharray:none;stroke-opacity:1"
       id="path4899-5-8"
       sodipodi:type="arc"
       sodipodi:cx="38.37537"
       sodipodi:cy="61.01022"
       sodipodi:rx="39.796993"
       sodipodi:ry="39.795792"
       sodipodi:start="0"
       sodipodi:end="5.8265798"
       sodipodi:open="true"
       sodipodi:arc-type="arc"
       d="M 78.172363,61.01022 A 39.796993,39.795792 0 0 1 42.908392,100.54701 39.796993,39.795792 0 0 1 -0.38896792,70.016988 39.796993,39.795792 0 0 1 25.01155,23.525234 39.796993,39.795792 0 0 1 74.095333,43.464099"
       transform="rotate(-21.784588)" />
    <path
       style="fill:none;fill-opacity:1;stroke:#d73665;stroke-width:0.60000002;stroke-miterlimit:4;stroke-dasharray:none;stroke-opacity:1"
       id="path4899-7"
       sodipodi:type="arc"
       sodipodi:cx="38.37537"
       sodipodi:cy="61.01022"
       sodipodi:rx="9.8992977"
       sodipodi:ry="9.8989353"
       sodipodi:start="0"
       sodipodi:end="5.8265798"
       sodipodi:open="true"
       sodipodi:arc-type="arc"
       d="M 48.274668,61.01022 A 9.8992977,9.8989353 0 0 1 39.502936,70.844731 9.8992977,9.8989353 0 0 1 28.73294,63.250593 9.8992977,9.8989353 0 0 1 35.051189,51.686082 9.8992977,9.8989353 0 0 1 47.260527,56.64574"
       transform="rotate(-21.784588)" />
    <path
       style="fill:#d73665;fill-opacity:1;stroke:#d73665;stroke-width:0.60000002;stroke-linecap:butt;stroke-linejoin:miter;stroke-miterlimit:4;stroke-dasharray:none;stroke-opacity:1"
       d="m 117.61064,42.412635 h 79.80969"
       id="path5505"
       inkscape:connector-curvature="0" />
    <path
       style="fill:#d73665;fill-opacity:1;stroke:#d73665;stroke-width:0.60000002;stroke-linecap:butt;stroke-linejoin:miter;stroke-miterlimit:4;stroke-dasharray:none;stroke-opacity:1"
       d="m 117.61064,52.462197 h 79.80969"
       id="path5505-7"
       inkscape:connector-curvature="0" />
    <path
       style="fill:#d73665;fill-opacity:1;stroke:#d73665;stroke-width:0.60000002;stroke-linecap:butt;stroke-linejoin:miter;stroke-miterlimit:4;stroke-dasharray:none;stroke-opacity:1"
       d="m 117.61064,62.411917 h 79.80969"
       id="path5505-1"
       inkscape:connector-curvature="0" />
    <path
       style="fill:#d73665;fill-opacity:1;stroke:#d73665;stroke-width:0.60000002;stroke-linecap:butt;stroke-linejoin:miter;stroke-miterlimit:4;stroke-dasharray:none;stroke-opacity:1"
       d="m 117.61064,72.397853 h 79.80969"
       id="path5505-5"
       inkscape:connector-curvature="0" />
    <path
       style="fill:#d73665;fill-opacity:1;stroke:#d73665;stroke-width:0.60000002;stroke-linecap:butt;stroke-linejoin:miter;stroke-miterlimit:4;stroke-dasharray:none;stroke-opacity:1"
       d="m 117.61064,32.362287 h 79.80968"
       id="path5505-12"
       inkscape:connector-curvature="0" />
    <path
       style="fill:#d73665;fill-opacity:1;stroke:#d73665;stroke-width:0.60000002;stroke-linecap:butt;stroke-linejoin:miter;stroke-miterlimit:4;stroke-dasharray:none;stroke-opacity:1"
       d="m 117.61064,22.411527 h 79.80968"
       id="path5505-2"
       inkscape:connector-curvature="0" />
    <path
       style="fill:#d73665;fill-opacity:1;stroke:#d73665;stroke-width:0.60000002;stroke-linecap:butt;stroke-linejoin:miter;stroke-miterlimit:4;stroke-dasharray:none;stroke-opacity:1"
       d="m 117.61064,12.424547 h 79.80968"
       id="path5505-26"
       inkscape:connector-curvature="0" />
    <path
       sodipodi:nodetypes="cccsc"
       inkscape:connector-curvature="0"
       id="path1471-8-7"
       style="fill:#d73665;fill-opacity:1;fill-rule:evenodd;stroke:#d73665;stroke-width:0.36289701;stroke-linejoin:round;stroke-opacity:1"
       d="m 65.895444,43.513035 0.681894,-6.180652 4.293082,4.494401 c -0.391186,-0.07902 -0.794797,-0.106447 -1.199258,-0.08638 -1.412232,0.07006 -2.834903,0.71913 -3.775718,1.772633 z" />
    <path
       sodipodi:nodetypes="cccsc"
       inkscape:connector-curvature="0"
       id="path1471-8-7-0"
       style="fill:#d73665;fill-opacity:1;fill-rule:evenodd;stroke:#d73665;stroke-width:0.36289701;stroke-linejoin:round;stroke-opacity:1"
       d="m 75.431805,39.945657 0.681894,-6.180652 4.293082,4.494401 c -0.391186,-0.07902 -0.794797,-0.106447 -1.199258,-0.08638 -1.412232,0.07006 -2.834903,0.71913 -3.775718,1.772633 z" />
    <path
       sodipodi:nodetypes="cccsc"
       inkscape:connector-curvature="0"
       id="path1471-8-7-2"
       style="fill:#d73665;fill-opacity:1;fill-rule:evenodd;stroke:#d73665;stroke-width:0.36289701;stroke-linejoin:round;stroke-opacity:1"
       d="m 84.705367,35.93162 0.681894,-6.180652 4.293082,4.494401 c -0.391186,-0.07902 -0.794797,-0.106447 -1.199258,-0.08638 -1.412232,0.07006 -2.834903,0.71913 -3.775718,1.772633 z" />
    <path
       sodipodi:nodetypes="cccsc"
       inkscape:connector-curvature="0"
       id="path1471-8-7-7"
       style="fill:#d73665;fill-opacity:1;fill-rule:evenodd;stroke:#d73665;stroke-width:0.36289701;stroke-linejoin:round;stroke-opacity:1"
       d="m 93.851738,33.021411 0.681894,-6.180652 4.293082,4.494401 c -0.391186,-0.07902 -0.794797,-0.106447 -1.199258,-0.08638 -1.412232,0.07006 -2.834903,0.71913 -3.775718,1.772633 z" />
    <path
       sodipodi:nodetypes="cccsc"
       inkscape:connector-curvature="0"
       id="path1471-8-7-29"
       style="fill:#d73665;fill-opacity:1;fill-rule:evenodd;stroke:#d73665;stroke-width:0.36289701;stroke-linejoin:round;stroke-opacity:1"
       d="m 194.60686,9.7980573 5.63207,2.6353797 -5.63723,2.6176 c 0.20075,-0.34492 0.35666,-0.71821 0.46787,-1.1076 0.38832,-1.3596 0.23182,-2.91549 -0.46271,-4.1453797 z" />
    <path
       sodipodi:nodetypes="cccsc"
       inkscape:connector-curvature="0"
       id="path1471-8-7-29-4"
       style="fill:#d73665;fill-opacity:1;fill-rule:evenodd;stroke:#d73665;stroke-width:0.36289701;stroke-linejoin:round;stroke-opacity:1"
       d="m 194.60686,19.785037 5.63207,2.63538 -5.63723,2.6176 c 0.20075,-0.34492 0.35666,-0.71821 0.46787,-1.1076 0.38832,-1.3596 0.23182,-2.91549 -0.46271,-4.14538 z" />
    <path
       sodipodi:nodetypes="cccsc"
       inkscape:connector-curvature="0"
       id="path1471-8-7-29-0"
       style="fill:#d73665;fill-opacity:1;fill-rule:evenodd;stroke:#d73665;stroke-width:0.36289701;stroke-linejoin:round;stroke-opacity:1"
       d="m 194.60686,29.735797 5.63207,2.63538 -5.63723,2.6176 c 0.20075,-0.34492 0.35666,-0.71821 0.46787,-1.1076 0.38832,-1.3596 0.23182,-2.91549 -0.46271,-4.14538 z" />
    <path
       sodipodi:nodetypes="cccsc"
       inkscape:connector-curvature="0"
       id="path1471-8-7-29-07"
       style="fill:#d73665;fill-opacity:1;fill-rule:evenodd;stroke:#d73665;stroke-width:0.36289701;stroke-linejoin:round;stroke-opacity:1"
       d="m 194.60687,39.786145 5.63207,2.63538 -5.63723,2.6176 c 0.20075,-0.34492 0.35666,-0.71821 0.46787,-1.1076 0.38832,-1.3596 0.23182,-2.91549 -0.46271,-4.14538 z" />
    <path
       sodipodi:nodetypes="cccsc"
       inkscape:connector-curvature="0"
       id="path1471-8-7-29-8"
       style="fill:#d73665;fill-opacity:1;fill-rule:evenodd;stroke:#d73665;stroke-width:0.36289701;stroke-linejoin:round;stroke-opacity:1"
       d="m 194.60687,49.835707 5.63207,2.63538 -5.63723,2.6176 c 0.20075,-0.34492 0.35666,-0.71821 0.46787,-1.1076 0.38832,-1.3596 0.23182,-2.91549 -0.46271,-4.14538 z" />
    <path
       sodipodi:nodetypes="cccsc"
       inkscape:connector-curvature="0"
       id="path1471-8-7-29-9"
       style="fill:#d73665;fill-opacity:1;fill-rule:evenodd;stroke:#d73665;stroke-width:0.36289701;stroke-linejoin:round;stroke-opacity:1"
       d="m 194.60687,59.785427 5.63207,2.63538 -5.63723,2.6176 c 0.20075,-0.34492 0.35666,-0.71821 0.46787,-1.1076 0.38832,-1.3596 0.23182,-2.91549 -0.46271,-4.14538 z" />
    <path
       sodipodi:nodetypes="cccsc"
       inkscape:connector-curvature="0"
       id="path1471-8-7-29-83"
       style="fill:#d73665;fill-opacity:1;fill-rule:evenodd;stroke:#d73665;stroke-width:0.36289701;stroke-linejoin:round;stroke-opacity:1"
       d="m 194.60687,69.771366 5.63207,2.635377 -5.63723,2.6176 c 0.20075,-0.34492 0.35666,-0.71821 0.46787,-1.1076 0.38832,-1.3596 0.23182,-2.91549 -0.46271,-4.145377 z" />
    <path
       style="fill:none;stroke:#000000;stroke-width:0.97181892;stroke-linecap:butt;stroke-linejoin:miter;stroke-miterlimit:4;stroke-dasharray:none;stroke-opacity:1;marker-end:url(#Arrow2Lend-3)"
       d="M 8.6319797,103.35036 H 35.76687"
       id="path3898-3"
       inkscape:connector-curvature="0" />
    <path
       style="fill:none;stroke:#000000;stroke-width:0.97181892;stroke-linecap:butt;stroke-linejoin:miter;stroke-miterlimit:4;stroke-dasharray:none;stroke-opacity:1;marker-end:url(#Arrow2Lend-3-2)"
       d="M 8.6319797,103.35036 V 76.2155"
       id="path3898-3-9"
       inkscape:connector-curvature="0" />
    <g
       inkscape:label=""
       transform="matrix(8.3159218,0,0,8.3159218,-723.77544,-584.20752)"
       id="g1150">
      <g
         id="g4657">
        <g
           style="fill:#000000;fill-opacity:1"
           id="g716">
          <g
             id="use2516"
             transform="matrix(0.26458333,0,0,0.26458333,91.925003,81.962997)">
            <path
               inkscape:connector-curvature="0"
               id="path3650"
               d="m 2.0387554,-2.7972511 c 0.038857,-0.1165699 0.038857,-0.1295221 0.038857,-0.1942831 0,-0.1424743 -0.1165699,-0.2201876 -0.246092,-0.2201876 -0.077713,0 -0.2072353,0.051809 -0.2849486,0.1683787 -0.012952,0.051809 -0.090665,0.2979008 -0.1165698,0.4533273 -0.064761,0.2072354 -0.1165699,0.4403751 -0.1683788,0.6605627 l -0.37561401,1.48950401 c -0.0259044,0.11656988 -0.38856626,0.69941928 -0.93255903,0.69941928 -0.41447068,0 -0.50513614,-0.36266185 -0.50513614,-0.67351486 0,-0.37561406 0.14247429,-0.89370243 0.41447068,-1.61902613 0.12952209,-0.3367574 0.16837871,-0.4274229 0.16837871,-0.5958016 0,-0.3626618 -0.25904417,-0.6735148 -0.67351485,-0.6735148 -0.79008476,0 -1.08798556,1.2045554 -1.08798556,1.2693164 0,0.090666 0.077713,0.090666 0.090666,0.090666 0.090665,0 0.090665,-0.025904 0.1295221,-0.1554265 0.2331397,-0.7771325 0.55694494,-1.0232245 0.84189354,-1.0232245 0.064761,0 0.20723534,0 0.20723534,0.2590442 0,0.2072353 -0.0906655,0.4274229 -0.1424743,0.5828494 -0.33675743,0.8807502 -0.47923168,1.34702968 -0.47923168,1.73559594 0,0.7382759 0.51808831,0.98436787 1.01027224,0.98436787 0.32380522,0 0.59580161,-0.1424743 0.82894137,-0.37561406 C 0.65286904,0.49260994 0.54925137,0.90708063 0.22544615,1.3474557 0.0052586,1.6194521 -0.30559442,1.8655441 -0.68120847,1.8655441 c -0.11656988,0 -0.49218393,-0.025904 -0.63465823,-0.3497097 0.1295221,0 0.246092,0 0.34970964,-0.1036176 0.0906655,-0.064761 0.16837871,-0.181331 0.16837871,-0.3367575 0,-0.25904414 -0.22018755,-0.28494855 -0.29790085,-0.28494855 -0.1942831,0 -0.4662795,0.12952208 -0.4662795,0.53104055 0,0.4144707 0.3626619,0.7253237 0.88075023,0.7253237 0.84189357,0 1.69673937,-0.7512281 1.92987907,-1.68378714 z m 0,0"
               style="stroke:none;stroke-width:0.82894135" />
          </g>
        </g>
      </g>
    </g>
    <g
       inkscape:label=""
       transform="matrix(6.8934116,0,0,6.8934116,-621.17443,-486.63012)"
       id="g1288">
      <g
         id="g7872">
        <g
           style="fill:#000000;fill-opacity:1"
           id="g3319">
          <g
             id="use577"
             transform="matrix(0.26458333,0,0,0.26458333,91.925003,81.962997)">
            <path
               inkscape:connector-curvature="0"
               id="path3646"
               d="m 1.328125,-0.828125 c 0.53125,-0.578125 0.828125,-0.828125 1.1875,-1.140625 0,0 0.609375,-0.53125 0.96875,-0.890625 C 4.4375,-3.78125 4.65625,-4.265625 4.65625,-4.3125 c 0,-0.09375 -0.09375,-0.09375 -0.109375,-0.09375 -0.078125,0 -0.09375,0.015625 -0.15625,0.109375 -0.296875,0.484375 -0.5,0.640625 -0.734375,0.640625 -0.25,0 -0.359375,-0.15625 -0.515625,-0.328125 -0.1875,-0.21875 -0.359375,-0.421875 -0.6875,-0.421875 -0.75,0 -1.203125,0.921875 -1.203125,1.140625 0,0.046875 0.03125,0.109375 0.109375,0.109375 0.09375,0 0.109375,-0.046875 0.140625,-0.109375 0.1875,-0.46875 0.765625,-0.46875 0.84375,-0.46875 0.203125,0 0.390625,0.0625 0.625,0.140625 0.40625,0.15625 0.515625,0.15625 0.765625,0.15625 -0.359375,0.421875 -1.1875,1.140625 -1.375,1.296875 l -0.90625,0.84375 C 0.78125,-0.625 0.421875,-0.0625 0.421875,0.015625 c 0,0.09375 0.109375,0.09375 0.125,0.09375 0.078125,0 0.09375,-0.015625 0.15625,-0.125 0.234375,-0.359375 0.53125,-0.625 0.859375,-0.625 0.21875,0 0.328125,0.09375 0.578125,0.375 0.15625,0.21875 0.34375,0.375 0.625,0.375 1,0 1.578125,-1.265625 1.578125,-1.53125 0,-0.046875 -0.046875,-0.109375 -0.125,-0.109375 -0.09375,0 -0.109375,0.0625 -0.140625,0.140625 C 3.84375,-0.75 3.203125,-0.5625 2.875,-0.5625 c -0.1875,0 -0.375,-0.0625 -0.578125,-0.125 -0.34375,-0.125 -0.5,-0.171875 -0.703125,-0.171875 -0.015625,0 -0.171875,0 -0.265625,0.03125 z m 0,0"
               style="stroke:none" />
          </g>
        </g>
      </g>
    </g>
    <g
       id="g912"
       transform="translate(18.750913,-55.081451)">
      <g
         word-spacing="normal"
         letter-spacing="normal"
         font-size-adjust="none"
         font-stretch="normal"
         font-weight="normal"
         font-variant="normal"
         font-style="normal"
         stroke-miterlimit="10.433"
         xml:space="preserve"
         transform="matrix(0.3,0,0,-0.3,-52.5,222.75)"
         id="content"
         style="font-style:normal;font-variant:normal;font-weight:normal;font-stretch:normal;letter-spacing:normal;word-spacing:normal;text-anchor:start;fill:none;fill-opacity:1;fill-rule:evenodd;stroke:#000000;stroke-linecap:butt;stroke-linejoin:miter;stroke-miterlimit:10.43299961;stroke-dasharray:none;stroke-dashoffset:0;stroke-opacity:1"><path
           id="path909"
           d="m 475.89,417.65 h 13.91 c 0.69,0 1.64,0 1.64,1 0,1 -0.95,1 -1.64,1 h -13.91 v 13.96 c 0,0.68 0,1.64 -1,1.64 -0.98,0 -0.98,-0.96 -0.98,-1.64 v -13.96 h -13.95 c -0.71,0 -1.64,0 -1.64,-1 0,-1 0.93,-1 1.64,-1 h 13.95 v -13.94 c 0,-0.7 0,-1.65 0.98,-1.65 1,0 1,0.95 1,1.65 z"
           inkscape:connector-curvature="0"
           style="fill:#000000;stroke-width:0" /></g>
    </g>
    <g
       id="g1833"
       transform="matrix(0.87787654,0,0,0.87787654,-63.858008,-85.2169)">
      <g
         word-spacing="normal"
         letter-spacing="normal"
         font-size-adjust="none"
         font-stretch="normal"
         font-weight="normal"
         font-variant="normal"
         font-style="normal"
         stroke-miterlimit="10.433"
         xml:space="preserve"
         transform="matrix(0.3,0,0,-0.3,-52.5,222.75)"
         id="g1831"
         style="font-style:normal;font-variant:normal;font-weight:normal;font-stretch:normal;letter-spacing:normal;word-spacing:normal;text-anchor:start;fill:none;fill-opacity:1;fill-rule:evenodd;stroke:#000000;stroke-linecap:butt;stroke-linejoin:miter;stroke-miterlimit:10.43299961;stroke-dasharray:none;stroke-dashoffset:0;stroke-opacity:1"><path
           id="path1825"
           d="m 472,394.25 v 0.02 0.03 0.01 0.02 0.01 l -0.01,0.02 v 0.01 l -0.01,0.02 -0.01,0.02 -0.01,0.02 -0.01,0.02 -0.02,0.03 -0.01,0.02 -0.02,0.03 -0.02,0.03 -0.03,0.03 -0.02,0.03 -0.03,0.04 -0.02,0.02 -0.01,0.02 -0.02,0.02 -0.02,0.02 -0.02,0.02 -0.02,0.03 -0.02,0.02 -0.02,0.02 -0.02,0.03 -0.03,0.02 -0.02,0.03 -0.03,0.03 -0.03,0.03 -0.02,0.03 -0.03,0.03 -0.03,0.03 -0.03,0.03 -0.03,0.03 -0.04,0.04 -0.03,0.03 -0.04,0.04 -0.03,0.03 -0.04,0.04 -0.04,0.04 c -6.22,6.28 -7.81,15.69 -7.81,23.31 0,8.67 1.89,17.35 8.01,23.56 0.64,0.61 0.64,0.71 0.64,0.86 0,0.35 -0.18,0.49 -0.48,0.49 -0.5,0 -4.98,-3.38 -7.92,-9.7 -2.55,-5.49 -3.14,-11.02 -3.14,-15.21 0,-3.89 0.54,-9.9 3.28,-15.54 2.98,-6.13 7.28,-9.36 7.78,-9.36 0.3,0 0.48,0.14 0.48,0.5 z"
           inkscape:connector-curvature="0"
           style="fill:#000000;stroke-width:0" /><path
           id="path1827"
           d="m 491.43,409.98 0.02,-0.19 0.03,-0.18 0.04,-0.19 0.04,-0.18 0.05,-0.19 0.05,-0.18 0.07,-0.18 0.06,-0.18 0.08,-0.18 0.08,-0.17 0.09,-0.18 0.09,-0.16 0.1,-0.16 0.11,-0.16 0.11,-0.16 0.12,-0.14 0.13,-0.14 0.13,-0.14 0.14,-0.13 0.14,-0.12 0.15,-0.12 0.16,-0.1 0.16,-0.1 0.17,-0.09 0.18,-0.08 0.18,-0.07 0.19,-0.06 0.19,-0.05 0.2,-0.04 0.2,-0.03 0.21,-0.02 0.22,-0.01 c 1.03,0 4.08,0.71 4.08,4.74 v 2.78 h -1.25 v -2.78 c 0,-2.89 -1.24,-3.19 -1.8,-3.19 -1.64,0 -1.84,2.23 -1.84,2.48 v 9.97 c 0,2.1 0,4.03 -1.78,5.88 -1.96,1.93 -4.44,2.73 -6.83,2.73 -4.1,0 -7.53,-2.33 -7.53,-5.62 0,-1.49 1,-2.35 2.29,-2.35 1.39,0 2.3,1 2.3,2.3 0,0.59 -0.25,2.23 -2.55,2.3 1.35,1.73 3.79,2.28 5.38,2.28 2.45,0 5.28,-1.94 5.28,-6.38 v -1.84 -1.05 -4.98 c 0,-4.74 -3.58,-6.42 -5.83,-6.42 -2.44,0 -4.48,1.75 -4.48,4.23 0,2.73 2.09,6.88 10.31,7.17 v 0 1.05 c -2.53,-0.14 -6.02,-0.3 -9.16,-1.8 -3.73,-1.69 -4.98,-4.28 -4.98,-6.47 0,-4.03 4.83,-5.28 7.97,-5.28 3.3,0 5.58,1.99 6.53,4.33 z"
           inkscape:connector-curvature="0"
           style="fill:#000000;stroke-width:0" /><path
           id="path1829"
           d="m 514.18,418.65 v 0.37 0.39 l -0.01,0.39 -0.01,0.41 -0.04,0.84 -0.06,0.88 -0.09,0.92 -0.1,0.95 -0.14,0.97 -0.16,1.01 -0.2,1.02 -0.23,1.03 -0.26,1.05 -0.31,1.06 -0.35,1.07 -0.39,1.07 -0.22,0.53 -0.22,0.53 -0.24,0.53 -0.25,0.53 c -2.98,6.12 -7.26,9.36 -7.76,9.36 -0.3,0 -0.5,-0.19 -0.5,-0.49 0,-0.15 0,-0.25 0.93,-1.15 4.89,-4.92 7.74,-12.85 7.74,-23.27 0,-8.51 -1.85,-17.28 -8.03,-23.56 -0.64,-0.59 -0.64,-0.7 -0.64,-0.84 0,-0.3 0.2,-0.5 0.5,-0.5 0.5,0 4.97,3.39 7.92,9.71 2.53,5.47 3.12,11 3.12,15.19 z"
           inkscape:connector-curvature="0"
           style="fill:#000000;stroke-width:0" /></g>
    </g>
    <g
       id="g1095"
       transform="translate(72.9361,-36.610928)">
      <g
         word-spacing="normal"
         letter-spacing="normal"
         font-size-adjust="none"
         font-stretch="normal"
         font-weight="normal"
         font-variant="normal"
         font-style="normal"
         stroke-miterlimit="10.433"
         xml:space="preserve"
         transform="matrix(0.28142857,0,0,-0.28142857,-49.25,147.75)"
         id="g1093"
         style="font-style:normal;font-variant:normal;font-weight:normal;font-stretch:normal;letter-spacing:normal;word-spacing:normal;text-anchor:start;fill:none;fill-opacity:1;fill-rule:evenodd;stroke:#000000;stroke-linecap:butt;stroke-linejoin:miter;stroke-miterlimit:10.43299961;stroke-dasharray:none;stroke-dashoffset:0;stroke-opacity:1"><path
           id="path1087"
           d="m 485.45,451.53 -1.29,1.25 c -1.49,-1.71 -3.24,-1.71 -3.78,-1.71 -1,0 -1.85,0.16 -3.99,0.86 -2.3,0.74 -3.23,0.85 -3.94,0.85 -0.89,0 -2.25,-0.21 -3.59,-1.55 -0.55,-0.55 -1.89,-2.05 -2.44,-2.59 l 1.3,-1.24 c 1.5,1.69 3.23,1.69 3.78,1.69 1,0 1.84,-0.16 3.98,-0.84 2.3,-0.75 3.25,-0.85 3.94,-0.85 0.91,0 2.25,0.19 3.6,1.53 0.54,0.55 1.89,2.05 2.43,2.6 z"
           inkscape:connector-curvature="0"
           style="fill:#000000;stroke-width:0" /><path
           id="path1089"
           d="m 482.82,424.04 0.5,0.1 0.48,0.1 0.47,0.12 0.46,0.13 0.45,0.14 0.43,0.15 0.42,0.16 0.41,0.17 0.39,0.18 0.38,0.2 0.36,0.2 0.34,0.21 0.34,0.22 0.31,0.23 0.3,0.24 0.29,0.25 0.27,0.25 0.25,0.27 0.24,0.27 0.22,0.28 0.21,0.29 0.19,0.29 0.17,0.31 0.15,0.31 0.14,0.31 0.12,0.33 0.1,0.32 0.08,0.34 0.07,0.34 0.04,0.35 0.03,0.35 0.01,0.36 c 0,4.58 -4.33,8.56 -12.36,8.56 l -0.64,-2.34 c 5.03,0 5.92,-3.92 5.92,-6.22 0,-3.85 -2.39,-6.92 -7.22,-6.92 h -7.78 v -1.8 h 9.68 c 1,0 3.34,0 5.03,-2.14 1.64,-2.09 1.64,-4.89 1.64,-5.44 0,-0.59 0,-6.97 -7.17,-6.97 v 0 h -9.18 v 14.55 1.8 13.14 h 9.08 l 0.64,2.34 h -21.62 v -2.34 h 5.39 v -29.49 h -5.39 v -2.34 h 23.12 c 8.27,0 12.46,4.39 12.46,9.26 0,4.79 -4.29,8.13 -10.22,8.58 z"
           inkscape:connector-curvature="0"
           style="fill:#000000;stroke-width:0" /><path
           id="path1091"
           d="m 515.7,411.9 v 0.02 l 0.01,0.03 v 0.02 l 0.01,0.02 0.01,0.02 v 0.02 l 0.01,0.04 0.01,0.03 0.01,0.03 0.01,0.04 0.01,0.03 v 0.02 l 0.01,0.03 0.01,0.03 v 0.02 l 0.01,0.02 v 0.02 0.02 l 0.01,0.02 v 0.02 0.02 l 0.01,0.02 v 0.02 0.03 0.03 l 0.01,0.04 v 0.03 0.02 0.02 0.02 0.02 c 0,0.69 -0.57,1.11 -1.16,1.11 -0.38,0 -1.05,-0.17 -1.42,-0.83 -0.11,-0.22 -0.39,-1.33 -0.56,-2.03 l -0.74,-2.89 c -0.2,-0.83 -1.28,-5.22 -1.39,-5.61 -0.03,0 -1.56,-3.03 -4.28,-3.03 -2.38,0 -2.38,2.26 -2.38,2.89 0,1.89 0.8,4.08 1.85,6.76 0.42,1.11 0.59,1.53 0.59,2.13 0,1.67 -1.42,2.95 -3.31,2.95 -3.52,0 -5.08,-4.73 -5.08,-5.33 0,-0.45 0.49,-0.45 0.59,-0.45 0.49,0 0.52,0.17 0.63,0.56 0.87,2.89 2.37,4.25 3.77,4.25 0.59,0 0.85,-0.39 0.85,-1.22 0,-0.79 -0.31,-1.56 -0.48,-2.01 -1.67,-4.25 -2.02,-5.55 -2.02,-7.08 0,-0.59 0,-2.23 1.36,-3.34 1.08,-0.91 2.55,-1.08 3.49,-1.08 1.39,0 2.64,0.51 3.8,1.56 -0.46,-1.92 -0.85,-3.37 -2.3,-5.12 -0.94,-1.08 -2.35,-2.22 -4.19,-2.22 -0.23,0 -1.87,0 -2.61,1.14 1.88,0.2 1.88,1.89 1.88,1.92 0,1.11 -1,1.31 -1.36,1.31 -0.86,0 -2.02,-0.69 -2.02,-2.3 0,-1.76 1.67,-3.06 4.14,-3.06 3.53,0 7.81,2.72 8.89,7.08 z"
           inkscape:connector-curvature="0"
           style="fill:#000000;stroke-width:0" /></g>
    </g>
    <g
       inkscape:label=""
       transform="matrix(1.4488638,0,0,1.4488638,-81.920817,-121.73681)"
       id="g1132">
      <g
         id="g3211">
        <g
           style="fill:#000000;fill-opacity:1"
           id="g7868">
          <use
             xlink:href="#symbol8971"
             x="91.925003"
             y="81.962997"
             id="use2050"
             width="100%"
             height="100%" />
        </g>
        <g
           style="fill:#000000;fill-opacity:1"
           id="g682">
          <use
             xlink:href="#symbol7971"
             x="100.075"
             y="83.457001"
             id="use8465"
             width="100%"
             height="100%" />
        </g>
      </g>
    </g>
  </g>
</svg>
