<?xml version="1.0" encoding="UTF-8" standalone="no"?>
<!-- Created with Inkscape (http://www.inkscape.org/) -->

<svg
   xmlns:dc="http://purl.org/dc/elements/1.1/"
   xmlns:cc="http://creativecommons.org/ns#"
   xmlns:rdf="http://www.w3.org/1999/02/22-rdf-syntax-ns#"
   xmlns:svg="http://www.w3.org/2000/svg"
   xmlns="http://www.w3.org/2000/svg"
   xmlns:sodipodi="http://sodipodi.sourceforge.net/DTD/sodipodi-0.dtd"
   xmlns:inkscape="http://www.inkscape.org/namespaces/inkscape"
   width="342.82318"
   height="125.72768"
   version="1.1"
   id="svg62"
   sodipodi:docname="lines.svg"
   inkscape:version="0.92.5 (2060ec1f9f, 2020-04-08)">
  <metadata
     id="metadata68">
    <rdf:RDF>
      <cc:Work
         rdf:about="">
        <dc:format>image/svg+xml</dc:format>
        <dc:type
           rdf:resource="http://purl.org/dc/dcmitype/StillImage" />
        <dc:title></dc:title>
      </cc:Work>
    </rdf:RDF>
  </metadata>
  <defs
     id="defs66" />
  <sodipodi:namedview
     pagecolor="#ffffff"
     bordercolor="#666666"
     borderopacity="1"
     objecttolerance="10"
     gridtolerance="10"
     guidetolerance="10"
     inkscape:pageopacity="0"
     inkscape:pageshadow="2"
     inkscape:window-width="1866"
     inkscape:window-height="1136"
     id="namedview64"
     showgrid="false"
     inkscape:zoom="1.7595527"
     inkscape:cx="82.466316"
     inkscape:cy="-22.342481"
     inkscape:window-x="54"
     inkscape:window-y="27"
     inkscape:window-maximized="1"
     inkscape:current-layer="svg62"
     fit-margin-top="0"
     fit-margin-left="0"
     fit-margin-right="0"
     fit-margin-bottom="0" />
  <path
     style="fill:#000016;fill-opacity:1;stroke-width:0.79822558"
     d="m 33.571089,0 v 4.390241 h 4.789354 l 0.399112,0.798225 V 7.18403 l -0.399112,0.798226 h -2.79379 L 34.768427,7.18403 V 6.385804 h -1.197338 v 1.596452 l 1.197338,1.197338 h 3.991128 L 40.356006,7.982256 V 4.390241 L 38.759555,3.192902 H 34.768427 V 1.197338 h 5.587579 V 0 Z"
     id="path2"
     inkscape:connector-curvature="0" />
  <path
     style="fill:#000016;fill-opacity:1;stroke-width:0.79822558"
     d="m 42.750683,0 -1.197338,1.197338 v 6.784918 l 1.197338,1.197338 h 3.991128 L 48.338262,7.982256 V 1.197338 h -1.995564 l 0.399113,0.798226 V 7.18403 L 46.342698,7.982256 H 43.548909 L 42.750683,7.18403 V 1.995564 l 0.798226,-0.798226 h 4.789353 L 46.741811,0 Z"
     id="path4"
     inkscape:connector-curvature="0" />
  <path
     style="fill:#000016;fill-opacity:1;stroke-width:0.79822558"
     d="m 93.437999,0 -3.99112,3.991128 v 1.995564 h 1.19733 V 4.390241 l 1.99557,-1.995564 h 0.79822 v 3.592015 h -3.99112 V 7.18403 h 3.99112 v 1.995564 h 1.19734 V 7.18403 h 1.59645 V 5.986692 h -1.59645 V 0 Z"
     id="path6"
     inkscape:connector-curvature="0" />
  <path
     style="fill:#000016;fill-opacity:1;stroke-width:0.79822558"
     d="m 98.626469,0 -1.19734,1.197338 v 6.784918 l 1.19734,1.197338 h 3.991131 l 1.59645,-1.197338 V 1.197338 h -1.99556 l 0.39911,0.798226 V 7.18403 l -0.39911,0.798226 H 99.424699 L 98.626469,7.18403 V 1.995564 l 0.79823,-0.798226 h 4.789351 L 102.6176,0 Z"
     id="path8"
     inkscape:connector-curvature="0" />
  <path
     style="fill:#000016;fill-opacity:1;stroke-width:0.79822558"
     d="m 138.53775,0 -1.19734,1.197338 v 1.197339 h 1.19734 V 1.995564 l 0.79823,-0.798226 h 2.79379 l 0.39911,0.798226 v 1.197338 l -0.39911,0.798226 h -1.99557 v 1.197338 h 1.99557 l 0.39911,0.798226 V 7.18403 l -0.39911,0.798226 h -2.79379 L 138.53775,7.18403 V 6.385804 h -1.19734 v 1.596452 l 1.19734,1.197338 h 3.99113 l 1.59645,-1.197338 V 5.188466 L 143.3271,4.390241 144.12533,3.991128 V 1.197338 L 142.52888,0 Z"
     id="path10"
     inkscape:connector-curvature="0" />
  <path
     style="fill:#000016;fill-opacity:1;stroke-width:0.79822558"
     d="m 146.52001,0 -1.19734,1.197338 v 6.784918 l 1.19734,1.197338 h 3.99112 l 1.59646,-1.197338 V 1.197338 h -1.99557 l 0.39911,0.798226 V 7.18403 l -0.39911,0.798226 h -2.79379 L 146.52001,7.18403 V 1.995564 l 0.79822,-0.798226 h 4.78936 L 150.51113,0 Z"
     id="path12"
     inkscape:connector-curvature="0" />
  <path
     style="fill:#000016;fill-opacity:1;stroke-width:0.79822558"
     d="m 178.44903,0 -1.19734,1.197338 v 1.197339 h 1.19734 V 1.995564 l 0.79823,-0.798226 h 2.79379 l 0.39911,0.798226 v 1.995564 l -0.39911,0.399113 h -3.59202 l -1.19734,1.596451 v 3.192902 h 6.78492 V 7.982256 h -5.58758 V 6.385804 l 0.79823,-0.399112 h 3.1929 l 1.59645,-1.596451 V 1.197338 L 182.44016,0 Z"
     id="path14"
     inkscape:connector-curvature="0" />
  <path
     style="fill:#000016;fill-opacity:1;stroke-width:0.79822558"
     d="m 186.43129,0 -1.19734,1.197338 v 6.784918 l 1.19734,1.197338 h 3.99112 l 1.59646,-1.197338 V 1.197338 h -1.99557 l 0.39911,0.798226 V 7.18403 l -0.39911,0.798226 h -2.79379 L 186.43129,7.18403 V 1.995564 l 0.79822,-0.798226 h 4.78936 L 190.42241,0 Z"
     id="path16"
     inkscape:connector-curvature="0" />
  <path
     style="fill:#000016;fill-opacity:1;stroke-width:0.79822558"
     d="m 211.9745,0 -2.79378,2.394677 v 1.596451 h 0.79822 l 1.19734,-1.596451 h 0.79822 v 5.587579 h -2.79378 v 1.197338 h 6.78491 V 7.982256 h -2.79379 V 0 Z"
     id="path18"
     inkscape:connector-curvature="0" />
  <path
     style="fill:#000016;fill-opacity:1;stroke-width:0.79822558"
     d="m 218.36031,0 -1.19734,1.197338 v 6.784918 l 1.19734,1.197338 h 3.99113 l 1.59645,-1.197338 V 1.197338 h -1.99557 l 0.39912,0.798226 V 7.18403 l -0.39912,0.798226 h -2.79378 L 218.36031,7.18403 V 1.995564 l 0.79823,-0.798226 h 4.78935 L 222.35144,0 Z"
     id="path20"
     inkscape:connector-curvature="0" />
  <path
     style="fill:#000016;fill-opacity:1;stroke-width:0.79822558"
     d="m 234.32482,0 -1.19734,1.197338 v 2.79379 l 0.79823,0.399113 -0.79823,0.798225 v 2.79379 l 1.19734,1.197338 h 3.99113 l 1.59645,-1.197338 v -2.79379 h -1.99556 l 0.39911,0.798226 V 7.18403 l -0.39911,0.798226 h -2.79379 L 234.32482,7.18403 V 5.986692 l 0.79823,-0.798226 h 4.78935 l -0.79822,-0.798225 0.79822,-0.399113 v -2.79379 h -1.99556 l 0.39911,0.798226 v 1.197338 l -0.39911,0.798226 h -2.79379 L 234.32482,3.192902 V 1.995564 l 0.79823,-0.798226 h 4.78935 L 238.31595,0 Z"
     id="path22"
     inkscape:connector-curvature="0" />
  <path
     style="fill:#000016;fill-opacity:1;stroke-width:0.79822558"
     d="m 255.4778,0 v 4.390241 h 4.78935 l 0.39912,0.798225 V 7.18403 l -0.39912,0.798226 h -2.79379 L 256.67514,7.18403 V 6.385804 h -1.19734 v 1.596452 l 1.19734,1.197338 h 3.99113 l 1.59645,-1.197338 V 4.390241 l -1.59645,-1.197339 h -3.99113 V 1.197338 h 5.58758 V 0 Z"
     id="path24"
     inkscape:connector-curvature="0" />
  <path
     style="fill:#000016;fill-opacity:1;stroke-width:0.79822558"
     d="m 279.42457,0 -3.99113,3.991128 v 1.995564 h 1.19734 V 4.390241 l 1.99556,-1.995564 h 0.79823 v 3.592015 h -3.99113 V 7.18403 h 3.99113 v 1.995564 h 1.19734 V 7.18403 h 1.59645 V 5.986692 h -1.59645 V 0 Z"
     id="path26"
     inkscape:connector-curvature="0" />
  <path
     style="fill:#000016;fill-opacity:1;stroke-width:0.79822558"
     d="m 295.78819,0 -1.19734,1.197338 v 1.197339 h 1.19734 V 1.995564 l 0.79823,-0.798226 h 2.79379 l 0.39911,0.798226 v 1.197338 l -0.39911,0.798226 h -1.99557 v 1.197338 h 1.99557 l 0.39911,0.798226 V 7.18403 l -0.39911,0.798226 h -2.79379 L 295.78819,7.18403 V 6.385804 h -1.19734 v 1.596452 l 1.19734,1.197338 h 3.99113 l 1.59645,-1.197338 v -2.79379 l -0.79822,-0.798225 0.79822,-0.399113 V 1.197338 L 299.77932,0 Z"
     id="path28"
     inkscape:connector-curvature="0" />
  <path
     style="fill:#000016;fill-opacity:1;stroke-width:0.79822558"
     d="m 314.14738,0 -1.19734,1.197338 v 1.197339 h 1.19734 V 1.995564 l 0.79823,-0.798226 h 2.79379 l 0.39911,0.798226 v 1.995564 l -0.39911,0.399113 h -3.59202 l -1.19734,1.596451 v 3.192902 h 6.78492 V 7.982256 h -5.58758 V 6.385804 l 0.79823,-0.399112 h 3.1929 l 1.59645,-1.596451 V 1.197338 L 318.13851,0 Z"
     id="path30"
     inkscape:connector-curvature="0" />
  <path
     style="fill:#000016;fill-opacity:1;stroke-width:0.79822558"
     d="m 44.347134,3.192902 v 2.79379 h 1.197339 v -2.79379 z"
     id="path32"
     inkscape:connector-curvature="0" />
  <path
     style="fill:#000016;fill-opacity:1;stroke-width:0.79822558"
     d="m 100.22292,3.192902 v 2.79379 h 1.19734 v -2.79379 z"
     id="path34"
     inkscape:connector-curvature="0" />
  <path
     style="fill:#000016;fill-opacity:1;stroke-width:0.79822558"
     d="m 148.11646,3.192902 v 2.79379 h 1.19734 v -2.79379 z"
     id="path36"
     inkscape:connector-curvature="0" />
  <path
     style="fill:#000016;fill-opacity:1;stroke-width:0.79822558"
     d="m 188.02774,3.192902 v 2.79379 h 1.19734 v -2.79379 z"
     id="path38"
     inkscape:connector-curvature="0" />
  <path
     style="fill:#000016;fill-opacity:1;stroke-width:0.79822558"
     d="m 219.95676,3.192902 v 2.79379 h 1.19734 v -2.79379 z"
     id="path40"
     inkscape:connector-curvature="0" />
  <path
     style="fill:#000016;fill-opacity:1;stroke-width:0.39268959"
     d="M 33.571089,29.135234 V 125.72768 H 73.482364 V 29.135234 Z"
     id="path42"
     inkscape:connector-curvature="0" />
  <path
     style="fill:#000016;fill-opacity:1;stroke-width:0.39268959"
     d="M 89.446879,29.135234 V 125.72768 H 121.3759 V 29.135234 Z"
     id="path44"
     inkscape:connector-curvature="0" />
  <path
     style="fill:#000016;fill-opacity:1;stroke-width:0.39268959"
     d="m 137.34041,29.135234 v 96.592446 h 23.94677 V 29.135234 Z"
     id="path46"
     inkscape:connector-curvature="0" />
  <path
     style="fill:#000016;fill-opacity:1;stroke-width:0.39268959"
     d="M 177.25169,29.135234 V 125.72768 H 193.2162 V 29.135234 Z"
     id="path48"
     inkscape:connector-curvature="0" />
  <path
     style="fill:#000016;fill-opacity:1;stroke-width:0.39268959"
     d="m 209.18072,29.135234 v 96.592446 h 7.98225 V 29.135234 Z"
     id="path50"
     inkscape:connector-curvature="0" />
  <path
     style="fill:#000016;fill-opacity:1;stroke-width:0.39268959"
     d="m 233.12748,29.135234 v 96.592446 h 6.38581 V 29.135234 Z"
     id="path52"
     inkscape:connector-curvature="0" />
  <path
     style="fill:#000016;fill-opacity:1;stroke-width:0.39268959"
     d="m 255.4778,29.135234 v 96.592446 h 3.99113 V 29.135234 Z"
     id="path54"
     inkscape:connector-curvature="0" />
  <path
     style="fill:#000016;fill-opacity:1;stroke-width:0.39268959"
     d="m 275.43344,29.135234 v 96.592446 h 3.1929 V 29.135234 Z"
     id="path56"
     inkscape:connector-curvature="0" />
  <path
     style="fill:#000016;fill-opacity:1;stroke-width:0.39268959"
     d="m 294.59085,29.135234 v 96.592446 h 2.39468 V 29.135234 Z"
     id="path58"
     inkscape:connector-curvature="0" />
  <path
     style="fill:#000016;fill-opacity:1;stroke-width:0.39268959"
     d="m 312.95004,29.135234 v 96.592446 h 1.59645 V 29.135234 Z"
     id="path60"
     inkscape:connector-curvature="0" />
  <path
     style="display:inline;fill:none;stroke:#7d7d7d;stroke-width:5.91437149;stroke-linecap:butt;stroke-linejoin:miter;stroke-miterlimit:4;stroke-dasharray:17.74311468, 5.91437155;stroke-dashoffset:0;stroke-opacity:1"
     d="M 0,58.478768 H 342.82319"
     id="path2211-1"
     inkscape:connector-curvature="0" />
</svg>
